<svg width="50" height="50" viewBox="0 0 50 50" fill="none" xmlns="http://www.w3.org/2000/svg">
<g filter="url(#filter0_gf_53_82)">
<path d="M24.0281 44.6746C23.7785 44.6665 23.5302 44.6537 23.283 44.6365L4.73706 26.0906C4.71993 25.8435 4.70802 25.5951 4.69995 25.3455L24.0281 44.6746ZM26.9158 44.5623C26.7016 44.5861 26.4865 44.6069 26.2703 44.6238L4.74976 23.1033C4.76669 22.8871 4.78752 22.672 4.81128 22.4578L26.9158 44.5623ZM20.6277 44.2742C20.3183 44.2104 20.0117 44.1392 19.7078 44.0613L5.31226 29.6658C5.23439 29.3619 5.16313 29.0552 5.09937 28.7459L20.6277 44.2742ZM29.4646 44.1111C29.2739 44.1579 29.0822 44.2017 28.8894 44.243L5.13062 20.4842C5.17185 20.2914 5.21571 20.0997 5.26245 19.909L29.4646 44.1111ZM31.7537 43.4002C31.5818 43.4651 31.4092 43.5284 31.2351 43.5887L5.78491 18.1385C5.8452 17.9644 5.90847 17.7917 5.97339 17.6199L31.7537 43.4002ZM16.113 42.7596C15.6014 42.5164 15.1016 42.2528 14.615 41.9686L7.40503 34.7586C7.12086 34.272 6.85714 33.7722 6.61401 33.2605L16.113 42.7596ZM33.8308 42.4773C33.6749 42.5577 33.5184 42.6374 33.3601 42.7137L6.65991 16.0135C6.73622 15.8552 6.81592 15.6987 6.89624 15.5428L33.8308 42.4773ZM35.7214 41.368C35.5794 41.4621 35.4363 41.5547 35.2917 41.6453L7.72827 14.0818C7.81885 13.9373 7.91147 13.7942 8.00562 13.6521L35.7214 41.368ZM37.4431 40.0896C37.3141 40.1966 37.1842 40.3023 37.0525 40.4061L8.96753 12.3211C9.07125 12.1894 9.17701 12.0594 9.28394 11.9305L37.4431 40.0896ZM39.0037 38.6502C38.8873 38.7695 38.7695 38.8873 38.6501 39.0037L10.3699 10.7234C10.4862 10.6041 10.6041 10.4863 10.7234 10.3699L39.0037 38.6502ZM40.406 37.0525C40.3023 37.1842 40.1965 37.3142 40.0896 37.4432L11.9304 9.28398C12.0594 9.17705 12.1894 9.0713 12.321 8.96758L40.406 37.0525ZM41.6453 35.2918C41.5547 35.4363 41.4621 35.5794 41.3679 35.7215L13.6521 8.00566C13.7941 7.91152 13.9372 7.8189 14.0818 7.72832L41.6453 35.2918ZM42.7136 33.3602C42.6373 33.5185 42.5576 33.6749 42.4773 33.8309L15.5427 6.89629C15.6987 6.81597 15.8551 6.73626 16.0134 6.65996L42.7136 33.3602ZM43.5886 31.2352C43.5283 31.4092 43.4651 31.5819 43.4001 31.7537L17.6199 5.97343C17.7917 5.90851 17.9644 5.84525 18.1384 5.78496L43.5886 31.2352ZM44.2429 28.8895C44.2017 29.0822 44.1578 29.274 44.1111 29.4646L19.9089 5.2625C20.0996 5.21575 20.2914 5.17189 20.4841 5.13066L44.2429 28.8895ZM44.6238 26.2703C44.6068 26.4865 44.586 26.7016 44.5623 26.9158L22.4568 4.81133C22.6713 4.78752 22.8868 4.76677 23.1033 4.7498L44.6238 26.2703ZM25.3455 4.7C25.595 4.70807 25.8434 4.71997 26.0906 4.73711L44.6365 23.283C44.6536 23.5302 44.6665 23.7785 44.6746 24.0281L25.3455 4.7ZM28.7449 5.09941C29.0548 5.16329 29.3622 5.23426 29.6667 5.3123L44.0613 19.7078C44.1392 20.0118 44.2104 20.3184 44.2742 20.6277L28.7449 5.09941ZM33.2605 6.61406C33.7721 6.85719 34.272 7.1209 34.7585 7.40508L41.9685 14.615C42.2527 15.1016 42.5164 15.6015 42.7595 16.1131L33.2605 6.61406Z" fill="url(#paint0_linear_53_82)"/>
</g>
<defs>
<filter id="filter0_gf_53_82" x="-4.86374e-05" y="-2.86102e-06" width="49.3746" height="49.3746" filterUnits="userSpaceOnUse" color-interpolation-filters="sRGB">
<feFlood flood-opacity="0" result="BackgroundImageFix"/>
<feBlend mode="normal" in="SourceGraphic" in2="BackgroundImageFix" result="shape"/>
<feTurbulence type="fractalNoise" baseFrequency="0.21739131212234497 0.21739131212234497" numOctaves="3" seed="9909" />
<feDisplacementMap in="shape" scale="9.3999996185302734" xChannelSelector="R" yChannelSelector="G" result="displacedImage" width="100%" height="100%" />
<feMerge result="effect1_texture_53_82">
<feMergeNode in="displacedImage"/>
</feMerge>
<feGaussianBlur stdDeviation="0.25" result="effect2_foregroundBlur_53_82"/>
</filter>
<linearGradient id="paint0_linear_53_82" x1="13.1873" y1="9.1873" x2="36.1873" y2="40.6873" gradientUnits="userSpaceOnUse">
<stop stop-color="#6DD5D8"/>
<stop offset="1" stop-color="#1D2856"/>
</linearGradient>
</defs>
</svg>
