<svg width="40" height="40" viewBox="0 0 40 40" fill="none" xmlns="http://www.w3.org/2000/svg">
<path d="M19.3281 39.9746C19.0785 39.9665 18.8302 39.9537 18.583 39.9365L0.0371094 21.3906C0.0199759 21.1435 0.00807024 20.8951 0 20.6455L19.3281 39.9746ZM22.2158 39.8623C22.0016 39.8861 21.7865 39.9069 21.5703 39.9238L0.0498047 18.4033C0.0667431 18.1871 0.08757 17.972 0.111328 17.7578L22.2158 39.8623ZM15.9277 39.5742C15.6184 39.5104 15.3118 39.4392 15.0078 39.3613L0.612305 24.9658C0.534436 24.6619 0.463176 24.3552 0.399414 24.0459L15.9277 39.5742ZM24.7646 39.4111C24.574 39.4579 24.3822 39.5017 24.1895 39.543L0.430664 15.7842C0.471896 15.5914 0.515756 15.3997 0.5625 15.209L24.7646 39.4111ZM27.0537 38.7002C26.8819 38.7651 26.7092 38.8284 26.5352 38.8887L1.08496 13.4385C1.14525 13.2644 1.20851 13.0917 1.27344 12.9199L27.0537 38.7002ZM11.4131 38.0596C10.9015 37.8164 10.4016 37.5528 9.91504 37.2686L2.70508 30.0586C2.42091 29.572 2.15719 29.0722 1.91406 28.5605L11.4131 38.0596ZM29.1309 37.7773C28.9749 37.8577 28.8185 37.9374 28.6602 38.0137L1.95996 11.3135C2.03627 11.1552 2.11597 10.9987 2.19629 10.8428L29.1309 37.7773ZM31.0215 36.668C30.8794 36.7621 30.7363 36.8547 30.5918 36.9453L3.02832 9.38184C3.1189 9.2373 3.21152 9.09418 3.30566 8.95215L31.0215 36.668ZM32.7432 35.3896C32.6142 35.4966 32.4842 35.6023 32.3525 35.7061L4.26758 7.62109C4.3713 7.48943 4.47705 7.35944 4.58398 7.23047L32.7432 35.3896ZM34.3037 33.9502C34.1873 34.0695 34.0695 34.1873 33.9502 34.3037L5.66992 6.02344C5.7863 5.90414 5.90414 5.7863 6.02344 5.66992L34.3037 33.9502ZM35.7061 32.3525C35.6023 32.4842 35.4966 32.6142 35.3896 32.7432L7.23047 4.58398C7.35944 4.47705 7.48943 4.3713 7.62109 4.26758L35.7061 32.3525ZM36.9453 30.5918C36.8547 30.7363 36.7621 30.8794 36.668 31.0215L8.95215 3.30566C9.09418 3.21152 9.2373 3.1189 9.38184 3.02832L36.9453 30.5918ZM38.0137 28.6602C37.9374 28.8185 37.8577 28.9749 37.7773 29.1309L10.8428 2.19629C10.9987 2.11597 11.1552 2.03627 11.3135 1.95996L38.0137 28.6602ZM38.8887 26.5352C38.8284 26.7092 38.7651 26.8819 38.7002 27.0537L12.9199 1.27344C13.0917 1.20851 13.2644 1.14525 13.4385 1.08496L38.8887 26.5352ZM39.543 24.1895C39.5017 24.3822 39.4579 24.574 39.4111 24.7646L15.209 0.5625C15.3997 0.515756 15.5914 0.471896 15.7842 0.430664L39.543 24.1895ZM39.9238 21.5703C39.9069 21.7865 39.8861 22.0016 39.8623 22.2158L17.7568 0.111328C17.9713 0.0875242 18.1868 0.0667685 18.4033 0.0498047L39.9238 21.5703ZM20.6455 0C20.8951 0.00807024 21.1435 0.0199759 21.3906 0.0371094L39.9365 18.583C39.9537 18.8302 39.9665 19.0785 39.9746 19.3281L20.6455 0ZM24.0449 0.399414C24.3549 0.46329 24.6622 0.534265 24.9668 0.612305L39.3613 15.0078C39.4392 15.3118 39.5104 15.6184 39.5742 15.9277L24.0449 0.399414ZM28.5605 1.91406C29.0722 2.15719 29.572 2.42091 30.0586 2.70508L37.2686 9.91504C37.5528 10.4016 37.8164 10.9015 38.0596 11.4131L28.5605 1.91406Z" fill="url(#paint0_linear_53_82)" fill-opacity="0.5"/>
<defs>
<linearGradient id="paint0_linear_53_82" x1="8.4873" y1="4.48731" x2="31.4873" y2="35.9873" gradientUnits="userSpaceOnUse">
<stop stop-color="#6DD5D8"/>
<stop offset="1" stop-color="#1D2856"/>
</linearGradient>
</defs>
</svg>
