<svg width="204" height="324" viewBox="0 0 204 324" fill="none" xmlns="http://www.w3.org/2000/svg">
<g clip-path="url(#clip0_76_274)">
<rect width="204" height="324" rx="12" fill="url(#paint0_linear_76_274)"/>
<path d="M0 12C0 5.37258 5.37258 0 12 0H24V205H0V12Z" fill="url(#paint1_linear_76_274)"/>
<rect x="65" y="202" width="14" height="14" rx="7" fill="#192E5D"/>
<path d="M73.9967 205.532C73.6604 205.496 73.3225 205.479 72.9843 205.48C71.8633 205.48 71.1667 206.194 71.1667 207.343V208.124H70.225C70.1808 208.124 70.1384 208.141 70.1072 208.172C70.0759 208.204 70.0583 208.246 70.0583 208.29V209.574C70.0583 209.618 70.0759 209.66 70.1072 209.692C70.1384 209.723 70.1808 209.74 70.225 209.74H71.1667V212.314C71.1667 212.358 71.1842 212.4 71.2155 212.432C71.2468 212.463 71.2891 212.48 71.3333 212.48H72.6593C72.7036 212.48 72.7459 212.463 72.7772 212.432C72.8085 212.4 72.826 212.358 72.826 212.314V209.74H73.7647C73.8051 209.74 73.8442 209.726 73.8747 209.699C73.9051 209.672 73.9248 209.635 73.93 209.595L74.0957 208.312C74.0988 208.288 74.0968 208.265 74.0899 208.242C74.083 208.219 74.0713 208.198 74.0557 208.18C74.04 208.163 74.0208 208.148 73.9991 208.138C73.9775 208.129 73.9541 208.124 73.9303 208.124H72.826V207.471C72.826 207.147 72.891 207.012 73.2953 207.012H73.975C74.0192 207.012 74.0616 206.995 74.0929 206.964C74.1241 206.932 74.1417 206.89 74.1417 206.846V205.697C74.1417 205.657 74.127 205.618 74.1003 205.587C74.0736 205.557 74.0368 205.537 73.9967 205.532ZM73.8083 206.679L73.295 206.679C72.576 206.679 72.4927 207.131 72.4927 207.471V208.291C72.4927 208.335 72.5102 208.377 72.5414 208.408C72.5726 208.44 72.6149 208.457 72.659 208.457H73.741L73.618 209.407H72.6593C72.6151 209.407 72.5728 209.425 72.5415 209.456C72.5102 209.487 72.4927 209.53 72.4927 209.574V212.147H71.5V209.574C71.5 209.53 71.4825 209.487 71.4512 209.456C71.4199 209.425 71.3776 209.407 71.3333 209.407H70.392V208.457H71.3333C71.3776 208.457 71.4199 208.44 71.4512 208.409C71.4825 208.377 71.5 208.335 71.5 208.291V207.343C71.5 206.385 72.055 205.813 72.9843 205.813C73.3207 205.813 73.6243 205.832 73.8083 205.848V206.679Z" fill="white"/>
<rect x="85" y="202" width="14" height="14" rx="7" fill="#192E5D"/>
<path d="M88.8334 209C88.8334 207.507 88.8334 206.761 89.297 206.297C89.7607 205.833 90.507 205.833 92 205.833C93.4927 205.833 94.2394 205.833 94.703 206.297C95.1667 206.761 95.1667 207.507 95.1667 209C95.1667 210.493 95.1667 211.239 94.703 211.703C94.2394 212.167 93.493 212.167 92 212.167C90.5074 212.167 89.7607 212.167 89.297 211.703C88.8334 211.239 88.8334 210.493 88.8334 209Z" stroke="white" stroke-width="0.6" stroke-linecap="round" stroke-linejoin="round"/>
<path d="M93.836 207.167H93.8327M93.5 209C93.5 209.398 93.342 209.779 93.0607 210.061C92.7794 210.342 92.3978 210.5 92 210.5C91.6022 210.5 91.2206 210.342 90.9393 210.061C90.658 209.779 90.5 209.398 90.5 209C90.5 208.602 90.658 208.221 90.9393 207.939C91.2206 207.658 91.6022 207.5 92 207.5C92.3978 207.5 92.7794 207.658 93.0607 207.939C93.342 208.221 93.5 208.602 93.5 209Z" stroke="white" stroke-width="0.6" stroke-linecap="round" stroke-linejoin="round"/>
<rect x="105" y="202" width="14" height="14" rx="7" fill="#192E5D"/>
<path fill-rule="evenodd" clip-rule="evenodd" d="M113.258 206.36C113.427 206.331 113.617 206.322 113.795 206.352C114.114 206.406 114.409 206.553 114.642 206.776C114.794 206.78 114.944 206.75 115.076 206.707C115.204 206.665 115.327 206.609 115.442 206.54L115.445 206.538C115.493 206.506 115.551 206.492 115.608 206.497C115.666 206.503 115.719 206.528 115.76 206.569C115.801 206.609 115.827 206.663 115.832 206.72C115.838 206.778 115.824 206.835 115.792 206.884C115.723 206.989 115.627 207.176 115.519 207.386L115.468 207.486C115.406 207.606 115.343 207.728 115.284 207.832C115.247 207.897 115.207 207.963 115.167 208.021V208.112C115.171 208.658 115.067 209.2 114.859 209.705C114.652 210.21 114.346 210.669 113.959 211.055C113.572 211.441 113.112 211.746 112.607 211.952C112.101 212.158 111.559 212.261 111.013 212.256C110.221 212.257 109.446 212.029 108.781 211.599C108.734 211.569 108.698 211.523 108.68 211.469C108.662 211.415 108.662 211.357 108.682 211.303C108.701 211.25 108.738 211.205 108.786 211.175C108.835 211.146 108.892 211.134 108.948 211.141C109.048 211.153 109.149 211.159 109.25 211.159C109.61 211.158 109.966 211.079 110.292 210.927C110.088 210.834 109.905 210.699 109.755 210.532C109.605 210.364 109.492 210.167 109.422 209.953C109.409 209.912 109.407 209.868 109.415 209.826C109.424 209.784 109.443 209.745 109.471 209.712L109.475 209.709C109.306 209.558 109.17 209.374 109.077 209.167C108.984 208.961 108.935 208.737 108.934 208.51V208.493C108.934 208.438 108.952 208.384 108.985 208.341C109.018 208.297 109.065 208.266 109.118 208.251C109.005 208.026 108.947 207.778 108.947 207.526C108.947 207.24 109.022 206.96 109.164 206.712C109.184 206.677 109.212 206.647 109.247 206.625C109.281 206.604 109.32 206.591 109.36 206.587C109.401 206.584 109.441 206.591 109.479 206.606C109.516 206.622 109.549 206.647 109.574 206.679C110.158 207.397 110.993 207.865 111.91 207.989C111.902 207.689 111.978 207.392 112.128 207.133C112.279 206.874 112.499 206.661 112.764 206.52C112.898 206.449 113.075 206.392 113.258 206.36ZM109.498 208.876C109.563 209.058 109.673 209.221 109.82 209.347C109.966 209.474 110.143 209.56 110.332 209.598C110.387 209.608 110.436 209.637 110.473 209.679C110.509 209.722 110.53 209.775 110.533 209.83C110.536 209.886 110.52 209.941 110.488 209.987C110.456 210.032 110.409 210.066 110.356 210.082C110.265 210.109 110.173 210.129 110.078 210.14C110.181 210.272 110.311 210.379 110.461 210.454C110.61 210.529 110.774 210.57 110.941 210.573C110.993 210.574 111.043 210.591 111.085 210.621C111.126 210.652 111.157 210.694 111.174 210.743C111.19 210.792 111.191 210.845 111.176 210.894C111.162 210.944 111.132 210.987 111.091 211.019C110.744 211.292 110.34 211.485 109.909 211.584C110.266 211.699 110.638 211.757 111.013 211.756H111.016C111.496 211.761 111.972 211.67 112.417 211.489C112.862 211.308 113.266 211.04 113.605 210.701C113.945 210.362 114.214 209.959 114.397 209.515C114.579 209.071 114.671 208.595 114.667 208.115V207.937C114.667 207.876 114.689 207.817 114.729 207.772C114.752 207.745 114.792 207.685 114.849 207.585C114.902 207.491 114.962 207.378 115.023 207.258L115.034 207.236C114.86 207.275 114.681 207.286 114.503 207.268C114.443 207.262 114.388 207.234 114.347 207.189C114.179 207.007 113.956 206.886 113.712 206.845C113.589 206.828 113.464 206.831 113.342 206.854C113.223 206.872 113.108 206.908 112.999 206.961C112.781 207.078 112.608 207.263 112.507 207.489C112.406 207.715 112.382 207.968 112.44 208.208C112.449 208.246 112.449 208.285 112.441 208.323C112.432 208.361 112.414 208.396 112.39 208.426C112.365 208.456 112.333 208.48 112.298 208.495C112.262 208.511 112.223 208.518 112.184 208.516C111.16 208.464 110.192 208.033 109.468 207.307C109.454 207.379 109.447 207.453 109.447 207.526V207.527C109.447 207.71 109.492 207.891 109.578 208.053C109.665 208.215 109.79 208.353 109.942 208.455C109.987 208.485 110.021 208.529 110.039 208.58C110.057 208.631 110.058 208.687 110.041 208.738C110.025 208.79 109.992 208.835 109.948 208.866C109.904 208.898 109.851 208.914 109.797 208.913C109.697 208.909 109.597 208.897 109.498 208.876" fill="white"/>
<path d="M109.498 208.876C109.563 209.058 109.673 209.221 109.82 209.347C109.966 209.474 110.143 209.56 110.332 209.598C110.387 209.608 110.436 209.637 110.473 209.679C110.509 209.722 110.53 209.775 110.533 209.83C110.536 209.886 110.52 209.941 110.488 209.987C110.456 210.032 110.409 210.066 110.356 210.082C110.265 210.109 110.173 210.129 110.078 210.14C110.181 210.272 110.311 210.379 110.461 210.454C110.61 210.529 110.774 210.57 110.941 210.573C110.993 210.574 111.043 210.591 111.085 210.621C111.126 210.652 111.157 210.694 111.174 210.743C111.19 210.792 111.191 210.845 111.176 210.894C111.162 210.944 111.132 210.987 111.091 211.019C110.744 211.292 110.34 211.485 109.909 211.584C110.266 211.699 110.638 211.757 111.013 211.756H111.016C111.496 211.761 111.972 211.67 112.417 211.489C112.862 211.308 113.266 211.04 113.605 210.701C113.945 210.362 114.214 209.959 114.397 209.515C114.579 209.071 114.671 208.595 114.667 208.115V207.937C114.667 207.876 114.689 207.817 114.729 207.772C114.752 207.745 114.792 207.685 114.849 207.585C114.902 207.491 114.962 207.378 115.023 207.258L115.034 207.236C114.86 207.275 114.681 207.286 114.503 207.268C114.443 207.262 114.388 207.234 114.347 207.189C114.179 207.007 113.956 206.886 113.712 206.845C113.589 206.828 113.464 206.831 113.342 206.854C113.223 206.872 113.108 206.908 112.999 206.961C112.781 207.078 112.608 207.263 112.507 207.489C112.406 207.715 112.382 207.968 112.44 208.208C112.449 208.246 112.449 208.285 112.441 208.323C112.432 208.361 112.414 208.396 112.39 208.426C112.365 208.456 112.333 208.48 112.298 208.495C112.262 208.511 112.223 208.518 112.184 208.516C111.16 208.464 110.192 208.033 109.468 207.307C109.454 207.379 109.447 207.453 109.447 207.526V207.527C109.447 207.71 109.492 207.891 109.578 208.053C109.665 208.215 109.79 208.353 109.942 208.455C109.987 208.485 110.021 208.529 110.039 208.58C110.057 208.631 110.058 208.687 110.041 208.738C110.025 208.79 109.992 208.835 109.948 208.866C109.904 208.898 109.851 208.914 109.797 208.913C109.697 208.909 109.597 208.897 109.498 208.876M113.258 206.36C113.427 206.331 113.617 206.322 113.795 206.352C114.114 206.406 114.409 206.553 114.642 206.776C114.794 206.78 114.944 206.75 115.076 206.707C115.204 206.665 115.327 206.609 115.442 206.54L115.445 206.538C115.493 206.506 115.551 206.492 115.608 206.497C115.666 206.503 115.719 206.528 115.76 206.569C115.801 206.609 115.827 206.663 115.832 206.72C115.838 206.778 115.824 206.835 115.792 206.884C115.723 206.989 115.627 207.176 115.519 207.386L115.468 207.486C115.406 207.606 115.343 207.728 115.284 207.832C115.247 207.897 115.207 207.963 115.167 208.021V208.112C115.171 208.658 115.067 209.2 114.859 209.705C114.652 210.21 114.346 210.669 113.959 211.055C113.572 211.441 113.112 211.746 112.607 211.952C112.101 212.158 111.559 212.261 111.013 212.256C110.221 212.257 109.446 212.029 108.781 211.599C108.734 211.569 108.698 211.523 108.68 211.469C108.662 211.415 108.662 211.357 108.682 211.303C108.701 211.25 108.738 211.205 108.786 211.175C108.835 211.146 108.892 211.134 108.948 211.141C109.048 211.153 109.149 211.159 109.25 211.159C109.61 211.158 109.966 211.079 110.292 210.927C110.088 210.834 109.905 210.699 109.755 210.532C109.605 210.364 109.492 210.167 109.422 209.953C109.409 209.912 109.407 209.868 109.415 209.826C109.424 209.784 109.443 209.745 109.471 209.712L109.475 209.709C109.306 209.558 109.17 209.374 109.077 209.167C108.984 208.961 108.935 208.737 108.934 208.51V208.493C108.934 208.438 108.952 208.384 108.985 208.341C109.018 208.297 109.065 208.266 109.118 208.251C109.005 208.026 108.947 207.778 108.947 207.526C108.947 207.24 109.022 206.96 109.164 206.712C109.184 206.677 109.212 206.647 109.247 206.625C109.281 206.604 109.32 206.591 109.36 206.587C109.401 206.584 109.441 206.591 109.479 206.606C109.516 206.622 109.549 206.647 109.574 206.679C110.158 207.397 110.993 207.865 111.91 207.989C111.902 207.689 111.978 207.392 112.128 207.133C112.279 206.874 112.499 206.661 112.764 206.52C112.898 206.449 113.075 206.392 113.258 206.36Z" stroke="white" stroke-width="0.2"/>
<rect x="125" y="202" width="14" height="14" rx="7" fill="#192E5D"/>
<path d="M133.912 211.731C135.42 210.675 135.786 208.596 134.73 207.088C133.675 205.58 131.596 205.214 130.088 206.27M133.912 211.731C132.404 212.786 130.325 212.42 129.269 210.912C128.214 209.404 128.58 207.325 130.088 206.27M133.912 211.731L130.088 206.27" stroke="white" stroke-width="0.6" stroke-linecap="round" stroke-linejoin="round"/>
<path d="M134.526 206.824C133.269 208.79 131.69 209.896 129.092 210.629" stroke="white" stroke-width="0.6" stroke-linecap="round" stroke-linejoin="round"/>
<path d="M132.353 205.685C132.491 207.432 133.484 208.85 135.235 209.802M128.764 208.198C130.359 208.925 131.351 210.343 131.647 212.315" stroke="white" stroke-width="0.6" stroke-linecap="round" stroke-linejoin="round"/>
<path d="M175 210.5C175 208.015 177.015 206 179.5 206H204V215H179.5C177.015 215 175 212.985 175 210.5V210.5Z" fill="url(#paint2_linear_76_274)"/>
<mask id="path-16-inside-1_76_274" fill="white">
<path d="M193 206H199.5C201.985 206 204 208.015 204 210.5V210.5C204 212.985 201.985 215 199.5 215H193V206Z"/>
</mask>
<path d="M193 206H199.5C201.985 206 204 208.015 204 210.5V210.5C204 212.985 201.985 215 199.5 215H193V206Z" fill="#41CBE8" fill-opacity="0.52"/>
<path d="M193 206H204H193ZM204 215H193H204ZM192.7 215V206H193.3V215H192.7ZM204 206V215V206Z" fill="#BDF1FE" mask="url(#path-16-inside-1_76_274)"/>
<path d="M0 239.775H54C59.5228 239.775 64 244.252 64 249.775V323.999H11C4.92487 323.999 0 319.074 0 312.999V239.775Z" fill="url(#paint3_linear_76_274)"/>
<path d="M0 212H32.3896C37.9125 212 42.3896 216.477 42.3896 222V324H12C5.37257 324 0 318.627 0 312V212Z" fill="#1D80B8" fill-opacity="0.5"/>
<path d="M175.5 238C175.5 232.753 179.753 228.5 185 228.5H204V229.5H185C180.306 229.5 176.5 233.306 176.5 238H175.5ZM204 324H176H204ZM175.5 324V238C175.5 232.753 179.753 228.5 185 228.5V229.5C180.306 229.5 176.5 233.306 176.5 238V324H175.5ZM204 229V324V229Z" fill="#CFDDE0"/>
<g filter="url(#filter0_n_76_274)">
<path d="M35.4932 253.976C35.3064 253.97 35.1205 253.96 34.9355 253.947L21.0283 240.04C21.0155 239.855 21.006 239.669 21 239.482L35.4932 253.976ZM37.6582 253.891C37.4978 253.908 37.3367 253.925 37.1748 253.938L21.0371 237.8C21.0498 237.638 21.0662 237.477 21.084 237.316L37.6582 253.891ZM32.9434 253.676C32.7115 253.628 32.4817 253.574 32.2539 253.516L21.46 242.722C21.4016 242.494 21.3476 242.264 21.2998 242.032L32.9434 253.676ZM39.5693 253.553C39.4265 253.588 39.2831 253.621 39.1387 253.652L21.3232 235.836C21.3541 235.692 21.3879 235.549 21.4229 235.406L39.5693 253.553ZM41.2871 253.021C41.1581 253.069 41.0281 253.116 40.8975 253.161L21.8145 234.078C21.8597 233.947 21.9063 233.817 21.9551 233.688L41.2871 253.021ZM29.5596 252.54C29.1742 252.357 28.7981 252.158 28.4316 251.943L23.0312 246.543C22.8173 246.177 22.6185 245.801 22.4355 245.416L29.5596 252.54ZM42.8447 252.328C42.7274 252.389 42.6093 252.448 42.4902 252.505L22.4707 232.485C22.5281 232.366 22.5871 232.248 22.6475 232.131L42.8447 252.328ZM44.2617 251.496C44.1552 251.567 44.0479 251.636 43.9395 251.704L23.2715 231.036C23.3394 230.928 23.4089 230.82 23.4795 230.714L44.2617 251.496ZM45.5527 250.538C45.4562 250.618 45.3584 250.697 45.2598 250.774L24.2012 229.716C24.2788 229.617 24.3574 229.519 24.4375 229.423L45.5527 250.538ZM46.7227 249.458C46.6354 249.547 46.5475 249.636 46.458 249.724L25.252 228.518C25.3392 228.428 25.4281 228.34 25.5176 228.253L46.7227 249.458ZM47.7744 248.26C47.6966 248.359 47.6183 248.457 47.5381 248.554L26.4219 227.438C26.5186 227.357 26.617 227.279 26.7158 227.201L47.7744 248.26ZM48.7031 246.939C48.6351 247.048 48.5668 247.156 48.4961 247.263L27.7129 226.479C27.8194 226.409 27.9268 226.339 28.0352 226.271L48.7031 246.939ZM49.5049 245.491C49.4476 245.61 49.3884 245.728 49.3281 245.845L29.1299 225.647C29.2472 225.587 29.3653 225.528 29.4844 225.471L49.5049 245.491ZM50.1611 243.898C50.1159 244.029 50.0693 244.159 50.0205 244.288L30.6875 224.955C30.8168 224.906 30.9472 224.86 31.0781 224.814L50.1611 243.898ZM50.6514 242.139C50.6204 242.284 50.5879 242.428 50.5527 242.571L32.4043 224.423C32.5474 224.388 32.6912 224.354 32.8359 224.323L50.6514 242.139ZM50.9375 240.176C50.9248 240.338 50.9084 240.499 50.8906 240.659L34.3164 224.085C34.4768 224.067 34.6379 224.051 34.7998 224.038L50.9375 240.176ZM36.4805 224C36.6679 224.006 36.8544 224.015 37.04 224.028L50.9473 237.936C50.9601 238.121 50.9695 238.307 50.9756 238.494L36.4805 224ZM39.0303 224.3C39.2625 224.348 39.4926 224.402 39.7207 224.46L50.5156 235.254C50.5742 235.482 50.6279 235.713 50.6758 235.945L39.0303 224.3ZM42.416 225.436C42.8003 225.618 43.1755 225.817 43.541 226.03L48.9453 231.435C49.159 231.8 49.3573 232.176 49.54 232.561L42.416 225.436Z" fill="url(#paint4_linear_76_274)" fill-opacity="0.25"/>
</g>
<path d="M165.328 290.975C165.079 290.967 164.83 290.954 164.583 290.937L146.037 272.391C146.02 272.143 146.008 271.895 146 271.646L165.328 290.975ZM168.216 290.862C168.002 290.886 167.787 290.907 167.57 290.924L146.05 269.403C146.067 269.187 146.088 268.972 146.111 268.758L168.216 290.862ZM161.928 290.574C161.618 290.51 161.312 290.439 161.008 290.361L146.612 275.966C146.534 275.662 146.463 275.355 146.399 275.046L161.928 290.574ZM170.765 290.411C170.574 290.458 170.382 290.502 170.189 290.543L146.431 266.784C146.472 266.591 146.516 266.4 146.562 266.209L170.765 290.411ZM173.054 289.7C172.882 289.765 172.709 289.828 172.535 289.889L147.085 264.438C147.145 264.264 147.209 264.092 147.273 263.92L173.054 289.7ZM157.413 289.06C156.901 288.816 156.402 288.553 155.915 288.269L148.705 281.059C148.421 280.572 148.157 280.072 147.914 279.561L157.413 289.06ZM175.131 288.777C174.975 288.858 174.818 288.937 174.66 289.014L147.96 262.313C148.036 262.155 148.116 261.999 148.196 261.843L175.131 288.777ZM177.021 287.668C176.879 287.762 176.736 287.855 176.592 287.945L149.028 260.382C149.119 260.237 149.212 260.094 149.306 259.952L177.021 287.668ZM178.743 286.39C178.614 286.497 178.484 286.602 178.353 286.706L150.268 258.621C150.371 258.489 150.477 258.359 150.584 258.23L178.743 286.39ZM180.304 284.95C180.187 285.07 180.07 285.187 179.95 285.304L151.67 257.023C151.786 256.904 151.904 256.786 152.023 256.67L180.304 284.95ZM181.706 283.353C181.602 283.484 181.497 283.614 181.39 283.743L153.23 255.584C153.359 255.477 153.489 255.371 153.621 255.268L181.706 283.353ZM182.945 281.592C182.855 281.736 182.762 281.879 182.668 282.021L154.952 254.306C155.094 254.212 155.237 254.119 155.382 254.028L182.945 281.592ZM184.014 279.66C183.937 279.818 183.858 279.975 183.777 280.131L156.843 253.196C156.999 253.116 157.155 253.036 157.313 252.96L184.014 279.66ZM184.889 277.535C184.828 277.709 184.765 277.882 184.7 278.054L158.92 252.273C159.092 252.209 159.264 252.145 159.438 252.085L184.889 277.535ZM185.543 275.189C185.502 275.382 185.458 275.574 185.411 275.765L161.209 251.562C161.4 251.516 161.591 251.472 161.784 251.431L185.543 275.189ZM185.924 272.57C185.907 272.787 185.886 273.002 185.862 273.216L163.757 251.111C163.971 251.088 164.187 251.067 164.403 251.05L185.924 272.57ZM166.646 251C166.895 251.008 167.143 251.02 167.391 251.037L185.937 269.583C185.954 269.83 185.967 270.079 185.975 270.328L166.646 251ZM170.045 251.399C170.355 251.463 170.662 251.534 170.967 251.612L185.361 266.008C185.439 266.312 185.51 266.618 185.574 266.928L170.045 251.399ZM174.561 252.914C175.072 253.157 175.572 253.421 176.059 253.705L183.269 260.915C183.553 261.402 183.816 261.901 184.06 262.413L174.561 252.914Z" fill="url(#paint5_linear_76_274)" fill-opacity="0.3"/>
<g filter="url(#filter1_gn_76_274)">
<path d="M8.32031 26.9668C8.06422 26.9549 7.80993 26.9367 7.55762 26.9111L-4.94531 14.4082C-4.97081 14.1559 -4.98808 13.9016 -5 13.6455L8.32031 26.9668ZM11.167 26.8135C10.9605 26.8458 10.7524 26.8733 10.543 26.8965L-4.93066 11.4229C-4.90744 11.2134 -4.88002 11.0054 -4.84766 10.7988L11.167 26.8135ZM13.5674 26.2139C13.3909 26.275 13.2128 26.3325 13.0332 26.3867L-4.4209 8.93262C-4.3667 8.75302 -4.30919 8.57491 -4.24805 8.39844L13.5674 26.2139ZM4.65234 26.2988C4.26927 26.1743 3.89317 26.0348 3.52539 25.8789L-3.91309 18.4404C-4.0689 18.0727 -4.20853 17.6965 -4.33301 17.3135L4.65234 26.2988ZM15.6504 25.2969C15.4967 25.3802 15.3406 25.4594 15.1836 25.5371L-3.57129 6.78223C-3.49357 6.62519 -3.41442 6.46907 -3.33105 6.31543L15.6504 25.2969ZM17.4697 24.1162C17.3358 24.2184 17.2011 24.3196 17.0635 24.417L-2.45117 4.90234C-2.35375 4.76475 -2.25259 4.62996 -2.15039 4.49609L17.4697 24.1162ZM19.0566 22.7031C18.9409 22.8231 18.8231 22.9409 18.7031 23.0566L-1.09082 3.2627C-0.975078 3.14277 -0.85723 3.02492 -0.737305 2.90918L19.0566 22.7031ZM20.417 21.0635C20.3196 21.2011 20.2184 21.3358 20.1162 21.4697L0.496094 1.84961C0.629958 1.74741 0.764746 1.64625 0.902344 1.54883L20.417 21.0635ZM21.5371 19.1836C21.4594 19.3406 21.3802 19.4967 21.2969 19.6504L2.31543 0.668945C2.46907 0.585579 2.62519 0.506426 2.78223 0.428711L21.5371 19.1836ZM22.3867 17.0332C22.3325 17.2128 22.275 17.3909 22.2139 17.5674L4.39844 -0.248047C4.57491 -0.309188 4.75302 -0.366698 4.93262 -0.420898L22.3867 17.0332ZM22.8965 14.543C22.8733 14.7524 22.8458 14.9605 22.8135 15.167L6.79883 -0.847656C7.00535 -0.880015 7.21344 -0.907439 7.42285 -0.930664L22.8965 14.543ZM9.64551 -1C9.90157 -0.988077 10.1559 -0.970812 10.4082 -0.945312L22.9111 11.5576C22.9367 11.8099 22.9549 12.0642 22.9668 12.3203L9.64551 -1ZM13.3125 -0.333984C13.6964 -0.209282 14.0729 -0.0682833 14.4414 0.0878906L21.8779 7.52441C22.0341 7.89285 22.1741 8.26954 22.2988 8.65332L13.3125 -0.333984Z" fill="url(#paint6_linear_76_274)" fill-opacity="0.2"/>
</g>
<g filter="url(#filter2_gn_76_274)">
<path d="M182 7.32031C182.012 7.06422 182.03 6.80993 182.056 6.55762L194.559 -5.94531C194.811 -5.97081 195.065 -5.98808 195.321 -6L182 7.32031ZM182.153 10.167C182.121 9.96045 182.094 9.7524 182.07 9.54297L197.544 -5.93066C197.753 -5.90744 197.961 -5.88001 198.168 -5.84765L182.153 10.167ZM182.753 12.5674C182.692 12.3909 182.634 12.2128 182.58 12.0332L200.034 -5.4209C200.214 -5.3667 200.392 -5.30919 200.568 -5.24805L182.753 12.5674ZM182.668 3.65234C182.792 3.26927 182.932 2.89317 183.088 2.52539L190.526 -4.91308C190.894 -5.0689 191.27 -5.20853 191.653 -5.33301L182.668 3.65234ZM183.67 14.6504C183.587 14.4967 183.507 14.3406 183.43 14.1836L202.185 -4.57129C202.342 -4.49357 202.498 -4.41442 202.651 -4.33105L183.67 14.6504ZM184.851 16.4697C184.748 16.3358 184.647 16.2011 184.55 16.0635L204.064 -3.45117C204.202 -3.35375 204.337 -3.25259 204.471 -3.15039L184.851 16.4697ZM186.264 18.0566C186.144 17.9409 186.026 17.8231 185.91 17.7031L205.704 -2.09082C205.824 -1.97508 205.942 -1.85723 206.058 -1.7373L186.264 18.0566ZM187.903 19.417C187.766 19.3196 187.631 19.2184 187.497 19.1162L207.117 -0.503904C207.219 -0.37004 207.321 -0.235252 207.418 -0.0976545L187.903 19.417ZM189.783 20.5371C189.626 20.4594 189.47 20.3802 189.316 20.2969L208.298 1.31543C208.381 1.46907 208.46 1.62519 208.538 1.78223L189.783 20.5371ZM191.934 21.3867C191.754 21.3325 191.576 21.275 191.399 21.2139L209.215 3.39844C209.276 3.57491 209.333 3.75302 209.388 3.93262L191.934 21.3867ZM194.424 21.8965C194.214 21.8733 194.006 21.8458 193.8 21.8135L209.814 5.79883C209.847 6.00535 209.874 6.21344 209.897 6.42285L194.424 21.8965ZM209.967 8.64551C209.955 8.90157 209.938 9.15592 209.912 9.40821L197.409 21.9111C197.157 21.9367 196.903 21.9549 196.646 21.9668L209.967 8.64551ZM209.301 12.3125C209.176 12.6964 209.035 13.0729 208.879 13.4414L201.442 20.8779C201.074 21.0341 200.697 21.1741 200.313 21.2988L209.301 12.3125Z" fill="url(#paint7_linear_76_274)" fill-opacity="0.2"/>
</g>
<rect x="70.15" y="278.15" width="102.7" height="36.7" rx="2.85" fill="#FCFCFC" stroke="black" stroke-width="0.3"/>
<rect x="77" y="284" width="1" height="16" fill="black"/>
<rect x="79" y="284" width="3" height="16" fill="black"/>
<rect x="84" y="284" width="2" height="16" fill="black"/>
<rect x="87" y="284" width="4" height="16" fill="black"/>
<rect x="94" y="284" width="4" height="16" fill="black"/>
<rect x="99" y="284" width="4" height="16" fill="black"/>
<rect x="104" y="284" width="4" height="16" fill="black"/>
<rect x="109" y="284" width="4" height="16" fill="black"/>
<rect x="120" y="284" width="4" height="16" fill="black"/>
<rect x="127" y="284" width="4" height="16" fill="black"/>
<rect x="141" y="284" width="4" height="16" fill="black"/>
<rect x="146" y="284" width="4" height="16" fill="black"/>
<rect x="153" y="284" width="4" height="16" fill="black"/>
<rect x="160" y="284" width="4" height="16" fill="black"/>
<rect x="92" y="284" width="1" height="16" fill="black"/>
<rect x="114" y="284" width="1" height="16" fill="black"/>
<rect x="125" y="284" width="1" height="16" fill="black"/>
<rect x="132" y="284" width="1" height="16" fill="black"/>
<rect x="134" y="284" width="1" height="16" fill="black"/>
<rect x="136" y="284" width="1" height="16" fill="black"/>
<rect x="138" y="284" width="1" height="16" fill="black"/>
<rect x="151" y="284" width="1" height="16" fill="black"/>
<rect x="158" y="284" width="1" height="16" fill="black"/>
<rect x="166" y="284" width="1" height="16" fill="black"/>
<rect x="116" y="284" width="1" height="16" fill="black"/>
<rect x="118" y="284" width="1" height="16" fill="black"/>
<path d="M86.31 308.075C86.1033 308.075 85.8983 308.055 85.695 308.015C85.495 307.978 85.33 307.928 85.2 307.865V307.32C85.3667 307.4 85.5417 307.46 85.725 307.5C85.9083 307.54 86.0883 307.56 86.265 307.56C86.4883 307.56 86.6583 307.518 86.775 307.435C86.8917 307.352 86.95 307.237 86.95 307.09C86.95 306.987 86.9233 306.902 86.87 306.835C86.8167 306.765 86.7383 306.705 86.635 306.655C86.5317 306.602 86.3733 306.533 86.16 306.45C85.8333 306.317 85.5967 306.168 85.45 306.005C85.3033 305.842 85.23 305.638 85.23 305.395C85.23 305.205 85.2817 305.037 85.385 304.89C85.4883 304.743 85.6333 304.63 85.82 304.55C86.0067 304.47 86.2217 304.43 86.465 304.43C86.665 304.43 86.8417 304.447 86.995 304.48C87.1517 304.51 87.305 304.558 87.455 304.625V305.155C87.165 305.015 86.8717 304.945 86.575 304.945C86.3617 304.945 86.1967 304.985 86.08 305.065C85.9633 305.142 85.905 305.252 85.905 305.395C85.905 305.498 85.9317 305.583 85.985 305.65C86.0383 305.713 86.1083 305.768 86.195 305.815C86.285 305.858 86.445 305.928 86.675 306.025C86.9083 306.122 87.0917 306.217 87.225 306.31C87.3617 306.403 87.4633 306.513 87.53 306.64C87.6 306.763 87.635 306.915 87.635 307.095C87.635 307.405 87.5233 307.647 87.3 307.82C87.0767 307.99 86.7467 308.075 86.31 308.075ZM89.2619 304.43H89.8769L88.4519 308H87.8369L89.2619 304.43ZM90.1783 304.505H90.7783L92.4133 306.94V304.505H93.0483V308H92.4483L90.8133 305.56V308H90.1783V304.505ZM93.68 306.22C93.59 306.22 93.5117 306.188 93.445 306.125C93.3817 306.058 93.35 305.98 93.35 305.89C93.35 305.8 93.3817 305.723 93.445 305.66C93.5117 305.593 93.59 305.56 93.68 305.56C93.77 305.56 93.8467 305.593 93.91 305.66C93.9767 305.723 94.01 305.8 94.01 305.89C94.01 305.98 93.9767 306.058 93.91 306.125C93.8467 306.188 93.77 306.22 93.68 306.22ZM93.68 307.92C93.59 307.92 93.5117 307.888 93.445 307.825C93.3817 307.758 93.35 307.68 93.35 307.59C93.35 307.5 93.3817 307.423 93.445 307.36C93.5117 307.293 93.59 307.26 93.68 307.26C93.77 307.26 93.8467 307.293 93.91 307.36C93.9767 307.423 94.01 307.5 94.01 307.59C94.01 307.68 93.9767 307.758 93.91 307.825C93.8467 307.888 93.77 307.92 93.68 307.92ZM95.9113 304.505H96.5313L97.7013 307.065L98.8713 304.505H99.4913V308H98.8913V305.73L97.8513 308H97.5513L96.5113 305.73V308H95.9113V304.505ZM99.791 307.59L100.481 306.955L100.811 306.66C100.994 306.5 101.133 306.372 101.226 306.275C101.323 306.178 101.401 306.075 101.461 305.965C101.521 305.852 101.551 305.73 101.551 305.6C101.551 305.41 101.494 305.265 101.381 305.165C101.271 305.062 101.113 305.01 100.906 305.01C100.746 305.01 100.579 305.04 100.406 305.1C100.236 305.157 100.081 305.238 99.941 305.345V304.74C100.231 304.533 100.588 304.43 101.011 304.43C101.384 304.43 101.674 304.53 101.881 304.73C102.088 304.93 102.191 305.203 102.191 305.55C102.191 305.713 102.159 305.867 102.096 306.01C102.033 306.15 101.943 306.287 101.826 306.42C101.709 306.553 101.551 306.712 101.351 306.895L100.726 307.475H102.316V308H99.791V307.59ZM104.021 308.075C103.714 308.075 103.447 308.002 103.221 307.855C102.994 307.708 102.819 307.498 102.696 307.225C102.576 306.952 102.516 306.628 102.516 306.255C102.516 305.882 102.576 305.558 102.696 305.285C102.816 305.008 102.987 304.797 103.211 304.65C103.437 304.503 103.707 304.43 104.021 304.43C104.331 304.43 104.599 304.503 104.826 304.65C105.052 304.797 105.226 305.008 105.346 305.285C105.466 305.558 105.526 305.882 105.526 306.255C105.526 306.628 105.466 306.952 105.346 307.225C105.226 307.498 105.052 307.708 104.826 307.855C104.599 308.002 104.331 308.075 104.021 308.075ZM104.021 307.505C104.297 307.505 104.511 307.395 104.661 307.175C104.814 306.952 104.891 306.647 104.891 306.26C104.891 305.873 104.816 305.568 104.666 305.345C104.516 305.122 104.302 305.01 104.026 305.01C103.749 305.01 103.534 305.122 103.381 305.345C103.231 305.568 103.156 305.873 103.156 306.26C103.156 306.647 103.231 306.952 103.381 307.175C103.534 307.395 103.747 307.505 104.021 307.505ZM105.724 307.59L106.414 306.955L106.744 306.66C106.927 306.5 107.066 306.372 107.159 306.275C107.256 306.178 107.334 306.075 107.394 305.965C107.454 305.852 107.484 305.73 107.484 305.6C107.484 305.41 107.427 305.265 107.314 305.165C107.204 305.062 107.046 305.01 106.839 305.01C106.679 305.01 106.512 305.04 106.339 305.1C106.169 305.157 106.014 305.238 105.874 305.345V304.74C106.164 304.533 106.521 304.43 106.944 304.43C107.317 304.43 107.607 304.53 107.814 304.73C108.021 304.93 108.124 305.203 108.124 305.55C108.124 305.713 108.092 305.867 108.029 306.01C107.966 306.15 107.876 306.287 107.759 306.42C107.642 306.553 107.484 306.712 107.284 306.895L106.659 307.475H108.249V308H105.724V307.59ZM109.454 308.075C109.267 308.075 109.084 308.055 108.904 308.015C108.724 307.975 108.572 307.92 108.449 307.85V307.315C108.589 307.402 108.747 307.47 108.924 307.52C109.1 307.567 109.269 307.59 109.429 307.59C110.005 307.59 110.294 307.362 110.294 306.905C110.294 306.685 110.222 306.517 110.079 306.4C109.939 306.283 109.74 306.225 109.484 306.225C109.367 306.225 109.244 306.237 109.114 306.26C108.984 306.283 108.869 306.315 108.769 306.355L108.504 306.205L108.639 304.505H110.689V305.03H109.214L109.149 305.83C109.332 305.79 109.535 305.77 109.759 305.77C110.129 305.77 110.417 305.872 110.624 306.075C110.83 306.278 110.934 306.555 110.934 306.905C110.934 307.285 110.81 307.575 110.564 307.775C110.317 307.975 109.947 308.075 109.454 308.075ZM111.875 305.175L111.135 305.71V305.12L111.975 304.505H112.505V308H111.875V305.175ZM114.31 308.075C114.003 308.075 113.736 308.002 113.51 307.855C113.283 307.708 113.108 307.498 112.985 307.225C112.865 306.952 112.805 306.628 112.805 306.255C112.805 305.882 112.865 305.558 112.985 305.285C113.105 305.008 113.276 304.797 113.5 304.65C113.726 304.503 113.996 304.43 114.31 304.43C114.62 304.43 114.888 304.503 115.115 304.65C115.341 304.797 115.515 305.008 115.635 305.285C115.755 305.558 115.815 305.882 115.815 306.255C115.815 306.628 115.755 306.952 115.635 307.225C115.515 307.498 115.341 307.708 115.115 307.855C114.888 308.002 114.62 308.075 114.31 308.075ZM114.31 307.505C114.586 307.505 114.8 307.395 114.95 307.175C115.103 306.952 115.18 306.647 115.18 306.26C115.18 305.873 115.105 305.568 114.955 305.345C114.805 305.122 114.591 305.01 114.315 305.01C114.038 305.01 113.823 305.122 113.67 305.345C113.52 305.568 113.445 305.873 113.445 306.26C113.445 306.647 113.52 306.952 113.67 307.175C113.823 307.395 114.036 307.505 114.31 307.505ZM116.753 305.175L116.013 305.71V305.12L116.853 304.505H117.383V308H116.753V305.175ZM119.188 308.075C118.881 308.075 118.615 308.002 118.388 307.855C118.161 307.708 117.986 307.498 117.863 307.225C117.743 306.952 117.683 306.628 117.683 306.255C117.683 305.882 117.743 305.558 117.863 305.285C117.983 305.008 118.155 304.797 118.378 304.65C118.605 304.503 118.875 304.43 119.188 304.43C119.498 304.43 119.766 304.503 119.993 304.65C120.22 304.797 120.393 305.008 120.513 305.285C120.633 305.558 120.693 305.882 120.693 306.255C120.693 306.628 120.633 306.952 120.513 307.225C120.393 307.498 120.22 307.708 119.993 307.855C119.766 308.002 119.498 308.075 119.188 308.075ZM119.188 307.505C119.465 307.505 119.678 307.395 119.828 307.175C119.981 306.952 120.058 306.647 120.058 306.26C120.058 305.873 119.983 305.568 119.833 305.345C119.683 305.122 119.47 305.01 119.193 305.01C118.916 305.01 118.701 305.122 118.548 305.345C118.398 305.568 118.323 305.873 118.323 306.26C118.323 306.647 118.398 306.952 118.548 307.175C118.701 307.395 118.915 307.505 119.188 307.505ZM121.631 305.175L120.891 305.71V305.12L121.731 304.505H122.261V308H121.631V305.175ZM124.066 308.075C123.76 308.075 123.493 308.002 123.266 307.855C123.04 307.708 122.865 307.498 122.741 307.225C122.621 306.952 122.561 306.628 122.561 306.255C122.561 305.882 122.621 305.558 122.741 305.285C122.861 305.008 123.033 304.797 123.256 304.65C123.483 304.503 123.753 304.43 124.066 304.43C124.376 304.43 124.645 304.503 124.871 304.65C125.098 304.797 125.271 305.008 125.391 305.285C125.511 305.558 125.571 305.882 125.571 306.255C125.571 306.628 125.511 306.952 125.391 307.225C125.271 307.498 125.098 307.708 124.871 307.855C124.645 308.002 124.376 308.075 124.066 308.075ZM124.066 307.505C124.343 307.505 124.556 307.395 124.706 307.175C124.86 306.952 124.936 306.647 124.936 306.26C124.936 305.873 124.861 305.568 124.711 305.345C124.561 305.122 124.348 305.01 124.071 305.01C123.795 305.01 123.58 305.122 123.426 305.345C123.276 305.568 123.201 305.873 123.201 306.26C123.201 306.647 123.276 306.952 123.426 307.175C123.58 307.395 123.793 307.505 124.066 307.505ZM127.275 308.075C126.968 308.075 126.701 308.002 126.475 307.855C126.248 307.708 126.073 307.498 125.95 307.225C125.83 306.952 125.77 306.628 125.77 306.255C125.77 305.882 125.83 305.558 125.95 305.285C126.07 305.008 126.241 304.797 126.465 304.65C126.691 304.503 126.961 304.43 127.275 304.43C127.585 304.43 127.853 304.503 128.08 304.65C128.306 304.797 128.48 305.008 128.6 305.285C128.72 305.558 128.78 305.882 128.78 306.255C128.78 306.628 128.72 306.952 128.6 307.225C128.48 307.498 128.306 307.708 128.08 307.855C127.853 308.002 127.585 308.075 127.275 308.075ZM127.275 307.505C127.551 307.505 127.765 307.395 127.915 307.175C128.068 306.952 128.145 306.647 128.145 306.26C128.145 305.873 128.07 305.568 127.92 305.345C127.77 305.122 127.556 305.01 127.28 305.01C127.003 305.01 126.788 305.122 126.635 305.345C126.485 305.568 126.41 305.873 126.41 306.26C126.41 306.647 126.485 306.952 126.635 307.175C126.788 307.395 127.001 307.505 127.275 307.505ZM129.718 305.175L128.978 305.71V305.12L129.818 304.505H130.348V308H129.718V305.175Z" fill="black"/>
</g>
<defs>
<filter id="filter0_n_76_274" x="21" y="224" width="29.9756" height="29.9756" filterUnits="userSpaceOnUse" color-interpolation-filters="sRGB">
<feFlood flood-opacity="0" result="BackgroundImageFix"/>
<feBlend mode="normal" in="SourceGraphic" in2="BackgroundImageFix" result="shape"/>
<feTurbulence type="fractalNoise" baseFrequency="0.1666666716337204 0.1666666716337204" stitchTiles="stitch" numOctaves="3" result="noise" seed="9620" />
<feComponentTransfer in="noise" result="coloredNoise1">
<feFuncR type="linear" slope="2" intercept="-0.5" />
<feFuncG type="linear" slope="2" intercept="-0.5" />
<feFuncB type="linear" slope="2" intercept="-0.5" />
<feFuncA type="discrete" tableValues="1 1 1 1 1 1 1 1 1 1 1 1 1 1 1 1 1 1 1 1 1 1 1 1 1 1 1 1 1 1 1 1 1 1 1 1 1 1 1 1 1 1 1 1 1 1 1 1 1 1 1 0 0 0 0 0 0 0 0 0 0 0 0 0 0 0 0 0 0 0 0 0 0 0 0 0 0 0 0 0 0 0 0 0 0 0 0 0 0 0 0 0 0 0 0 0 0 0 0 0 "/>
</feComponentTransfer>
<feComposite operator="in" in2="shape" in="coloredNoise1" result="noise1Clipped" />
<feComponentTransfer in="noise1Clipped" result="color1">
<feFuncA type="table" tableValues="0 0.47" />
</feComponentTransfer>
<feMerge result="effect1_noise_76_274">
<feMergeNode in="shape" />
<feMergeNode in="color1" />
</feMerge>
</filter>
<filter id="filter1_gn_76_274" x="-6.9" y="-2.9" width="31.7668" height="31.7668" filterUnits="userSpaceOnUse" color-interpolation-filters="sRGB">
<feFlood flood-opacity="0" result="BackgroundImageFix"/>
<feBlend mode="normal" in="SourceGraphic" in2="BackgroundImageFix" result="shape"/>
<feTurbulence type="fractalNoise" baseFrequency="0.3125 0.3125" numOctaves="3" seed="9620" />
<feDisplacementMap in="shape" scale="3.7999999523162842" xChannelSelector="R" yChannelSelector="G" result="displacedImage" width="100%" height="100%" />
<feMerge result="effect1_texture_76_274">
<feMergeNode in="displacedImage"/>
</feMerge>
<feTurbulence type="fractalNoise" baseFrequency="0.38461539149284363 0.38461539149284363" stitchTiles="stitch" numOctaves="3" result="noise" seed="2305" />
<feComponentTransfer in="noise" result="coloredNoise1">
<feFuncR type="linear" slope="2" intercept="-0.5" />
<feFuncG type="linear" slope="2" intercept="-0.5" />
<feFuncB type="linear" slope="2" intercept="-0.5" />
<feFuncA type="discrete" tableValues="0 0 0 1 1 1 1 1 1 1 1 1 1 1 1 1 1 1 1 1 1 1 1 1 1 1 1 1 1 1 1 1 1 1 1 1 1 1 1 1 1 1 1 1 1 1 1 0 0 0 0 0 0 0 0 0 0 0 0 0 0 0 0 0 0 0 0 0 0 0 0 0 0 0 0 0 0 0 0 0 0 0 0 0 0 0 0 0 0 0 0 0 0 0 0 0 0 0 0 0 "/>
</feComponentTransfer>
<feComposite operator="in" in2="effect1_texture_76_274" in="coloredNoise1" result="noise1Clipped" />
<feComponentTransfer in="noise1Clipped" result="color1">
<feFuncA type="table" tableValues="0 0.15" />
</feComponentTransfer>
<feMerge result="effect2_noise_76_274">
<feMergeNode in="effect1_texture_76_274" />
<feMergeNode in="color1" />
</feMerge>
</filter>
<filter id="filter2_gn_76_274" x="180.1" y="-7.9" width="31.7668" height="31.7668" filterUnits="userSpaceOnUse" color-interpolation-filters="sRGB">
<feFlood flood-opacity="0" result="BackgroundImageFix"/>
<feBlend mode="normal" in="SourceGraphic" in2="BackgroundImageFix" result="shape"/>
<feTurbulence type="fractalNoise" baseFrequency="0.3125 0.3125" numOctaves="3" seed="9620" />
<feDisplacementMap in="shape" scale="3.7999999523162842" xChannelSelector="R" yChannelSelector="G" result="displacedImage" width="100%" height="100%" />
<feMerge result="effect1_texture_76_274">
<feMergeNode in="displacedImage"/>
</feMerge>
<feTurbulence type="fractalNoise" baseFrequency="0.38461539149284363 0.38461539149284363" stitchTiles="stitch" numOctaves="3" result="noise" seed="2305" />
<feComponentTransfer in="noise" result="coloredNoise1">
<feFuncR type="linear" slope="2" intercept="-0.5" />
<feFuncG type="linear" slope="2" intercept="-0.5" />
<feFuncB type="linear" slope="2" intercept="-0.5" />
<feFuncA type="discrete" tableValues="0 0 0 1 1 1 1 1 1 1 1 1 1 1 1 1 1 1 1 1 1 1 1 1 1 1 1 1 1 1 1 1 1 1 1 1 1 1 1 1 1 1 1 1 1 1 1 0 0 0 0 0 0 0 0 0 0 0 0 0 0 0 0 0 0 0 0 0 0 0 0 0 0 0 0 0 0 0 0 0 0 0 0 0 0 0 0 0 0 0 0 0 0 0 0 0 0 0 0 0 "/>
</feComponentTransfer>
<feComposite operator="in" in2="effect1_texture_76_274" in="coloredNoise1" result="noise1Clipped" />
<feComponentTransfer in="noise1Clipped" result="color1">
<feFuncA type="table" tableValues="0 0.15" />
</feComponentTransfer>
<feMerge result="effect2_noise_76_274">
<feMergeNode in="effect1_texture_76_274" />
<feMergeNode in="color1" />
</feMerge>
</filter>
<linearGradient id="paint0_linear_76_274" x1="102" y1="0" x2="102" y2="324" gradientUnits="userSpaceOnUse">
<stop stop-color="white"/>
<stop offset="0.50005" stop-color="white"/>
<stop offset="1" stop-color="#CDD7E1"/>
</linearGradient>
<linearGradient id="paint1_linear_76_274" x1="12" y1="0" x2="12" y2="225.5" gradientUnits="userSpaceOnUse">
<stop stop-color="#74D5F5"/>
<stop offset="0.402972" stop-color="#96D5F2"/>
<stop offset="1" stop-color="white" stop-opacity="0"/>
</linearGradient>
<linearGradient id="paint2_linear_76_274" x1="204" y1="210.5" x2="175" y2="210.5" gradientUnits="userSpaceOnUse">
<stop stop-color="#6DD5D8"/>
<stop offset="1" stop-color="#2872E7"/>
</linearGradient>
<linearGradient id="paint3_linear_76_274" x1="32" y1="239.775" x2="32" y2="323.999" gradientUnits="userSpaceOnUse">
<stop stop-color="#26336E"/>
<stop offset="1" stop-color="#0F3865"/>
</linearGradient>
<linearGradient id="paint4_linear_76_274" x1="35.9878" y1="224" x2="35.9878" y2="253.976" gradientUnits="userSpaceOnUse">
<stop stop-color="#D3DAE4"/>
<stop offset="1" stop-color="#80B7ED"/>
</linearGradient>
<linearGradient id="paint5_linear_76_274" x1="181" y1="284" x2="154.305" y2="255.238" gradientUnits="userSpaceOnUse">
<stop stop-color="#76FBFF"/>
<stop offset="0.726026" stop-color="#6492AB"/>
<stop offset="1" stop-color="#6173E4" stop-opacity="0.7"/>
</linearGradient>
<linearGradient id="paint6_linear_76_274" x1="23.9961" y1="25.9961" x2="-2.69863" y2="-2.76573" gradientUnits="userSpaceOnUse">
<stop stop-color="#76FBFF"/>
<stop offset="0.726026" stop-color="#6492AB"/>
<stop offset="1" stop-color="#6173E4" stop-opacity="0.7"/>
</linearGradient>
<linearGradient id="paint7_linear_76_274" x1="182.971" y1="22.9961" x2="211.733" y2="-3.69863" gradientUnits="userSpaceOnUse">
<stop stop-color="#76FBFF" stop-opacity="0"/>
<stop offset="0.726026" stop-color="#6492AB"/>
<stop offset="1" stop-color="#6173E4" stop-opacity="0.7"/>
</linearGradient>
<clipPath id="clip0_76_274">
<rect width="204" height="324" rx="12" fill="white"/>
</clipPath>
</defs>
</svg>
