<svg width="40" height="40" viewBox="0 0 40 40" fill="none" xmlns="http://www.w3.org/2000/svg">
<path d="M20.2496 0.657799H21.8707V0.0865097C22.0375 0.102091 22.2043 0.119488 22.3707 0.139244V0.657799H23.9918V0.399986C24.1588 0.433846 24.3256 0.47023 24.4918 0.508385V0.657799H25.0963C25.4373 0.74731 25.7763 0.84671 26.1129 0.954674V0.952721C26.1699 0.970976 26.2268 0.990805 26.2838 1.00936C26.2939 1.01269 26.304 1.01578 26.3141 1.01913L26.6129 1.11874V1.12069C26.6471 1.13265 26.6813 1.14468 26.7155 1.15682H26.6129V2.77792H28.235V1.76913C28.4021 1.84461 28.5686 1.92222 28.734 2.00253V2.77792L30.1774 2.77889C30.2371 2.81426 30.2966 2.8503 30.3561 2.88631V2.88534C30.383 2.90163 30.4094 2.91871 30.4362 2.93514C30.5534 3.00691 30.6697 3.08046 30.7858 3.15487C30.8089 3.16972 30.833 3.18386 30.8561 3.19881V3.19979C30.8968 3.22618 30.9385 3.25217 30.9791 3.27889H30.8561V4.89999H32.4762V4.36776C32.6447 4.50257 32.8121 4.6398 32.9772 4.78085V4.89999H33.1129C33.2997 5.06258 33.4845 5.2293 33.6666 5.39999H32.9772V7.02108H34.5983V6.33163C34.7689 6.51363 34.9358 6.69765 35.0983 6.88436V7.02108H35.2155C35.3563 7.18586 35.4939 7.35289 35.6285 7.52108H35.0983V9.14217H36.7194V9.01717C36.8933 9.28147 37.0602 9.54943 37.2203 9.81991V11.2642H37.9948C38.0751 11.4298 38.1526 11.5969 38.2281 11.7642H37.2203V13.3853H38.8414V13.2818C38.8536 13.3162 38.8646 13.3509 38.8766 13.3853H38.8785C38.8953 13.4333 38.9102 13.4818 38.9264 13.5299C39.0809 13.9826 39.2204 14.4393 39.3414 14.9V15.5064H39.4889C39.527 15.6727 39.5625 15.8395 39.5963 16.0064H39.3414V17.6275H39.858C39.8778 17.7939 39.8942 17.9608 39.9098 18.1275H39.3414V19.7496H39.9957C39.9978 19.9161 39.9978 20.0831 39.9957 20.2496H39.3414V21.8707H39.9098C39.8942 22.0374 39.8778 22.2043 39.858 22.3707H39.3414V23.9918H39.5963C39.5625 24.1588 39.527 24.3255 39.4889 24.4918H39.3414V25.0963C39.2519 25.4372 39.1515 25.7762 39.0436 26.1129C39.0367 26.1343 39.03 26.1559 39.0231 26.1773C38.9949 26.2641 38.9655 26.3506 38.9362 26.4371C38.9166 26.4955 38.8989 26.5546 38.8785 26.6129H38.8766C38.8647 26.647 38.8535 26.6814 38.8414 26.7154V26.6129H37.2194V28.2349H38.2281C38.1527 28.4021 38.0751 28.5685 37.9948 28.734H37.2194V30.1773C37.1839 30.2372 37.1471 30.2964 37.111 30.356H37.1119C37.1049 30.3677 37.0966 30.3786 37.0895 30.3902C36.9693 30.5876 36.847 30.7851 36.7194 30.9791V30.856H35.0983V32.4771H35.6285C35.4939 32.6454 35.3563 32.8123 35.2155 32.9771H35.0983V33.1129C34.9357 33.2997 34.7689 33.4845 34.5983 33.6666V32.9771H32.9772V34.5982H33.6666C33.4845 34.7689 33.2997 34.9357 33.1129 35.0982H32.9772V35.2154C32.8124 35.3563 32.6454 35.4939 32.4772 35.6285V35.0982H30.8561V36.7193H30.9791C30.7851 36.847 30.5877 36.9693 30.3903 37.0894C30.3786 37.0965 30.3677 37.1048 30.3561 37.1119V37.1109C30.2965 37.147 30.2373 37.1839 30.1774 37.2193H28.734V37.9947C28.5686 38.075 28.4021 38.1526 28.235 38.2281V37.2193H26.6129V38.8414H26.7155C26.6814 38.8535 26.647 38.8646 26.6129 38.8765V38.8785C26.5547 38.8989 26.4956 38.9166 26.4371 38.9361C26.3292 38.9728 26.2214 39.0097 26.1129 39.0445V39.0435C25.7762 39.1515 25.4373 39.2519 25.0963 39.3414H24.4918V39.4889C24.3256 39.527 24.1588 39.5624 23.9918 39.5963V39.3414H22.3707V39.858C22.2043 39.8778 22.0375 39.8942 21.8707 39.9098V39.3414H20.2496V39.9957C20.0831 39.9978 19.9162 39.9978 19.7496 39.9957V39.3414H18.1276V39.9098C17.9609 39.8942 17.7939 39.8777 17.6276 39.858V39.3414H16.0065V39.5963C15.8395 39.5624 15.6727 39.527 15.5065 39.4889V39.3414H14.9C14.5595 39.252 14.2216 39.1513 13.8854 39.0435V39.0445C13.8743 39.041 13.8633 39.0364 13.8522 39.0328C13.7446 38.9981 13.637 38.9629 13.5299 38.9264C13.4818 38.9102 13.4333 38.8953 13.3854 38.8785V38.8765C13.351 38.8645 13.3162 38.8536 13.2819 38.8414H13.3854V37.2193H11.7643V38.2281C11.597 38.1526 11.4299 38.0751 11.2643 37.9947V37.2193H9.81897C9.54914 37.0595 9.28186 36.8929 9.01819 36.7193H9.14221V35.0982H7.52112V35.6285C7.35293 35.4939 7.18589 35.3563 7.02112 35.2154V35.0982H6.8844C6.69769 34.9357 6.51367 34.7688 6.33167 34.5982H7.02112V32.9771H5.40002V33.6666C5.22933 33.4845 5.06262 33.2997 4.90002 33.1129V32.9771H4.78088C4.64004 32.8123 4.50242 32.6453 4.3678 32.4771H4.90002V30.856H3.27893V30.9791C3.2522 30.9385 3.22622 30.8968 3.19983 30.856H3.19885C3.1839 30.833 3.16976 30.8089 3.15491 30.7857C3.0805 30.6697 3.00695 30.5534 2.93518 30.4361C2.91875 30.4093 2.90167 30.3829 2.88538 30.356H2.88733C2.85123 30.2965 2.81437 30.2372 2.77893 30.1773V28.734H2.00256C1.92225 28.5685 1.84464 28.4021 1.76917 28.2349H2.77893V26.6129H1.15686V26.7154C1.14475 26.6814 1.13363 26.647 1.1217 26.6129H1.11877C1.06082 26.447 1.00622 26.2799 0.952759 26.1129H0.954712C0.846753 25.7762 0.747344 25.4372 0.657837 25.0963V24.4918H0.508423C0.470268 24.3255 0.433884 24.1588 0.400024 23.9918H0.657837V22.3707H0.139282C0.119526 22.2043 0.102129 22.0375 0.0865479 21.8707H0.657837V20.2496H0.00158691C-0.000481643 20.0831 -0.000478576 19.9161 0.00158691 19.7496H0.657837V18.1275H0.0865479C0.102125 17.9608 0.119533 17.7939 0.139282 17.6275H0.657837V16.0064H0.400024C0.433884 15.8394 0.470268 15.6727 0.508423 15.5064H0.657837V14.9C0.747241 14.5596 0.84694 14.2215 0.954712 13.8853H0.952759C0.968304 13.8368 0.98486 13.7884 1.00061 13.7398C1.01399 13.6992 1.027 13.6584 1.04065 13.6178C1.06632 13.5402 1.0918 13.4625 1.11877 13.3853H1.1217C1.13373 13.3509 1.14465 13.3162 1.15686 13.2818V13.3853H2.77893V11.7642H1.76917C1.84472 11.5969 1.92217 11.4299 2.00256 11.2642H2.77893V9.81893C2.81404 9.75965 2.85061 9.70119 2.88635 9.64217H2.88538C2.89362 9.62857 2.90151 9.61474 2.90979 9.60116C3.02908 9.40525 3.1522 9.21069 3.27893 9.01815V9.14217H4.90002V7.52108L4.3678 7.52206C4.50263 7.35357 4.63981 7.18614 4.78088 7.02108H4.90002V6.88436C5.06265 6.69751 5.23028 6.51376 5.401 6.33163V7.02108H7.02112V5.39999L6.33167 5.40096C6.51381 5.23023 6.69754 5.06262 6.8844 4.89999H7.02112V4.78085C7.18583 4.64007 7.35299 4.50329 7.52112 4.36874V4.89999H9.14221V3.27889H9.01721C9.28155 3.10489 9.54943 2.93807 9.81995 2.77792H11.2643V2.00253C11.4299 1.92213 11.597 1.84468 11.7643 1.76913V2.77792H13.3854V1.15682H13.2819C13.3163 1.14457 13.3509 1.13275 13.3854 1.12069V1.11874C13.4626 1.09176 13.5402 1.06628 13.6178 1.04061C13.6584 1.02697 13.6992 1.01395 13.7399 1.00057C13.7884 0.984823 13.8368 0.968264 13.8854 0.952721V0.953697C14.2214 0.845961 14.5597 0.747177 14.9 0.657799H15.5065V0.508385C15.6727 0.47023 15.8395 0.433846 16.0065 0.399986V0.657799H17.6276V0.139244C17.7939 0.119494 17.9609 0.102087 18.1276 0.0865097V0.657799H19.7496V0.00154877C19.9162 -0.000516716 20.0831 -0.000519788 20.2496 0.00154877V0.657799ZM13.8854 37.2193V38.8414H15.5065V37.2193H13.8854ZM16.0065 37.2193V38.8414H17.6276V37.2193H16.0065ZM18.1276 37.2193V38.8414H19.7496V37.2193H18.1276ZM20.2496 37.2193V38.8414H21.8707V37.2193H20.2496ZM22.3707 37.2193V38.8414H23.9918V37.2193H22.3707ZM24.4918 37.2193V38.8414H26.1129V37.2193H24.4918ZM9.64221 35.0982V36.7193H11.2643V35.0982H9.64221ZM11.7643 35.0982V36.7193H13.3854V35.0982H11.7643ZM13.8854 35.0982V36.7193H15.5065V35.0982H13.8854ZM16.0065 35.0982V36.7193H17.6276V35.0982H16.0065ZM18.1276 35.0982V36.7193H19.7496V35.0982H18.1276ZM20.2496 35.0982V36.7193H21.8707V35.0982H20.2496ZM22.3707 35.0982V36.7193H23.9918V35.0982H22.3707ZM24.4918 35.0982V36.7193H26.1129V35.0982H24.4918ZM26.6129 35.0982V36.7193H28.235V35.0982H26.6129ZM28.734 35.0982V36.7193H30.3561V35.0982H28.734ZM7.52112 32.9771V34.5982H9.14221V32.9771H7.52112ZM9.64221 32.9771V34.5982H11.2643V32.9771H9.64221ZM11.7643 32.9771V34.5982H13.3854V32.9771H11.7643ZM13.8854 32.9771V34.5982H15.5065V32.9771H13.8854ZM16.0065 32.9771V34.5982H17.6276V32.9771H16.0065ZM18.1276 32.9771V34.5982H19.7496V32.9771H18.1276ZM20.2496 32.9771V34.5982H21.8707V32.9771H20.2496ZM22.3707 32.9771V34.5982H23.9918V32.9771H22.3707ZM24.4918 32.9771V34.5982H26.1129V32.9771H24.4918ZM26.6129 32.9771V34.5982H28.235V32.9771H26.6129ZM28.734 32.9771V34.5982H30.3561V32.9771H28.734ZM30.8561 32.9771V34.5982H32.4772V32.9771H30.8561ZM5.40002 30.856V32.4771H7.02112V30.856H5.40002ZM7.52112 30.856V32.4771H9.14221V30.856H7.52112ZM9.64221 30.856V32.4771H11.2643V30.856H9.64221ZM11.7643 30.856V32.4771H13.3854V30.856H11.7643ZM13.8854 30.856V32.4771H15.5065V30.856H13.8854ZM16.0065 30.856V32.4771H17.6276V30.856H16.0065ZM18.1276 30.856V32.4771H19.7496V30.856H18.1276ZM20.2496 30.856V32.4771H21.8707V30.856H20.2496ZM22.3707 30.856V32.4771H23.9918V30.856H22.3707ZM24.4918 30.856V32.4771H26.1129V30.856H24.4918ZM26.6129 30.856V32.4771H28.235V30.856H26.6129ZM28.734 30.856V32.4771H30.3561V30.856H28.734ZM30.8561 30.856V32.4771H32.4772V30.856H30.8561ZM32.9772 30.856V32.4771H34.5983V30.856H32.9772ZM3.27893 28.734V30.356H4.90002V28.734H3.27893ZM5.40002 28.734V30.356H7.02112V28.734H5.40002ZM7.52112 28.734V30.356H9.14221V28.734H7.52112ZM9.64221 28.734V30.356H11.2643V28.734H9.64221ZM11.7643 28.734V30.356H13.3854V28.734H11.7643ZM13.8854 28.734V30.356H15.5065V28.734H13.8854ZM16.0065 28.734V30.356H17.6276V28.734H16.0065ZM18.1276 28.734V30.356H19.7496V28.734H18.1276ZM20.2496 28.734V30.356H21.8707V28.734H20.2496ZM22.3707 28.734V30.356H23.9918V28.734H22.3707ZM24.4918 28.734V30.356H26.1129V28.734H24.4918ZM26.6129 28.734V30.356H28.235V28.734H26.6129ZM28.734 28.734V30.356H30.3561V28.734H28.734ZM30.8561 28.734V30.356H32.4772V28.734H30.8561ZM32.9772 28.734V30.356H34.5983V28.734H32.9772ZM35.0983 28.734V30.356H36.7194V28.734H35.0983ZM3.27893 26.6129V28.2349H4.90002V26.6129H3.27893ZM5.40002 26.6129V28.2349H7.02112V26.6129H5.40002ZM7.52112 26.6129V28.2349H9.14221V26.6129H7.52112ZM9.64221 26.6129V28.2349H11.2643V26.6129H9.64221ZM11.7643 26.6129V28.2349H13.3854V26.6129H11.7643ZM13.8854 26.6129V28.2349H15.5065V26.6129H13.8854ZM16.0065 26.6129V28.2349H17.6276V26.6129H16.0065ZM18.1276 26.6129V28.2349H19.7496V26.6129H18.1276ZM20.2496 26.6129V28.2349H21.8707V26.6129H20.2496ZM22.3707 26.6129V28.2349H23.9918V26.6129H22.3707ZM24.4918 26.6129V28.2349H26.1129V26.6129H24.4918ZM26.6129 26.6129V28.2349H28.235V26.6129H26.6129ZM28.734 26.6129V28.2349H30.3561V26.6129H28.734ZM30.8561 26.6129V28.2349H32.4772V26.6129H30.8561ZM32.9772 26.6129V28.2349H34.5983V26.6129H32.9772ZM35.0983 26.6129V28.2349H36.7194V26.6129H35.0983ZM1.15686 24.4918V26.1129H2.77893V24.4918H1.15686ZM3.27893 24.4918V26.1129H4.90002V24.4918H3.27893ZM5.40002 24.4918V26.1129H7.02112V24.4918H5.40002ZM7.52112 24.4918V26.1129H9.14221V24.4918H7.52112ZM9.64221 24.4918V26.1129H11.2643V24.4918H9.64221ZM11.7643 24.4918V26.1129H13.3854V24.4918H11.7643ZM13.8854 24.4918V26.1129H15.5065V24.4918H13.8854ZM16.0065 24.4918V26.1129H17.6276V24.4918H16.0065ZM18.1276 24.4918V26.1129H19.7496V24.4918H18.1276ZM20.2496 24.4918V26.1129H21.8707V24.4918H20.2496ZM22.3707 24.4918V26.1129H23.9918V24.4918H22.3707ZM24.4918 24.4918V26.1129H26.1129V24.4918H24.4918ZM26.6129 24.4918V26.1129H28.235V24.4918H26.6129ZM28.734 24.4918V26.1129H30.3561V24.4918H28.734ZM30.8561 24.4918V26.1129H32.4772V24.4918H30.8561ZM32.9772 24.4918V26.1129H34.5983V24.4918H32.9772ZM35.0983 24.4918V26.1129H36.7194V24.4918H35.0983ZM37.2194 24.4918V26.1129H38.8414V24.4918H37.2194ZM1.15686 22.3707V23.9918H2.77893V22.3707H1.15686ZM3.27893 22.3707V23.9918H4.90002V22.3707H3.27893ZM5.40002 22.3707V23.9918H7.02112V22.3707H5.40002ZM7.52112 22.3707V23.9918H9.14221V22.3707H7.52112ZM9.64221 22.3707V23.9918H11.2643V22.3707H9.64221ZM11.7643 22.3707V23.9918H13.3854V22.3707H11.7643ZM13.8854 22.3707V23.9918H15.5065V22.3707H13.8854ZM16.0065 22.3707V23.9918H17.6276V22.3707H16.0065ZM18.1276 22.3707V23.9918H19.7496V22.3707H18.1276ZM20.2496 22.3707V23.9918H21.8707V22.3707H20.2496ZM22.3707 22.3707V23.9918H23.9918V22.3707H22.3707ZM24.4918 22.3707V23.9918H26.1129V22.3707H24.4918ZM26.6129 22.3707V23.9918H28.235V22.3707H26.6129ZM28.734 22.3707V23.9918H30.3561V22.3707H28.734ZM30.8561 22.3707V23.9918H32.4772V22.3707H30.8561ZM32.9772 22.3707V23.9918H34.5983V22.3707H32.9772ZM35.0983 22.3707V23.9918H36.7194V22.3707H35.0983ZM37.2194 22.3707V23.9918H38.8414V22.3707H37.2194ZM1.15686 20.2496V21.8707H2.77893V20.2496H1.15686ZM3.27893 20.2496V21.8707H4.90002V20.2496H3.27893ZM5.40002 20.2496V21.8707H7.02112V20.2496H5.40002ZM7.52112 20.2496V21.8707H9.14221V20.2496H7.52112ZM9.64221 20.2496V21.8707H11.2643V20.2496H9.64221ZM11.7643 20.2496V21.8707H13.3854V20.2496H11.7643ZM13.8854 20.2496V21.8707H15.5065V20.2496H13.8854ZM16.0065 20.2496V21.8707H17.6276V20.2496H16.0065ZM18.1276 20.2496V21.8707H19.7496V20.2496H18.1276ZM20.2496 20.2496V21.8707H21.8707V20.2496H20.2496ZM22.3707 20.2496V21.8707H23.9918V20.2496H22.3707ZM24.4918 20.2496V21.8707H26.1129V20.2496H24.4918ZM26.6129 20.2496V21.8707H28.235V20.2496H26.6129ZM28.734 20.2496V21.8707H30.3561V20.2496H28.734ZM30.8561 20.2496V21.8707H32.4772V20.2496H30.8561ZM32.9772 20.2496V21.8707H34.5983V20.2496H32.9772ZM35.0983 20.2496V21.8707H36.7194V20.2496H35.0983ZM37.2194 20.2496V21.8707H38.8414V20.2496H37.2194ZM1.15686 18.1275V19.7496H2.77893V18.1275H1.15686ZM3.27893 18.1275V19.7496H4.90002V18.1275H3.27893ZM5.401 18.1275V19.7496H7.02112V18.1275H5.401ZM7.52112 18.1275V19.7496H9.14221V18.1275H7.52112ZM9.64221 18.1275V19.7496H11.2643V18.1275H9.64221ZM11.7643 18.1275V19.7496H13.3854V18.1275H11.7643ZM13.8854 18.1275V19.7496H15.5065V18.1275H13.8854ZM16.0065 18.1275V19.7496H17.6276V18.1275H16.0065ZM18.1276 18.1275V19.7496H19.7496V18.1275H18.1276ZM20.2496 18.1275V19.7496H21.8707V18.1275H20.2496ZM22.3707 18.1275V19.7496H23.9918V18.1275H22.3707ZM24.4918 18.1275V19.7496H26.1129V18.1275H24.4918ZM26.6129 18.1275V19.7496H28.235V18.1275H26.6129ZM28.734 18.1275V19.7496H30.3561V18.1275H28.734ZM30.8561 18.1275V19.7496H32.4762V18.1275H30.8561ZM32.9772 18.1275V19.7496H34.5983V18.1275H32.9772ZM35.0983 18.1275V19.7496H36.7194V18.1275H35.0983ZM37.2203 18.1275V19.7496H38.8414V18.1275H37.2203ZM1.15686 16.0064V17.6275H2.77893V16.0064H1.15686ZM3.27893 16.0064V17.6275H4.90002V16.0064H3.27893ZM5.401 16.0064V17.6275H7.02112V16.0064H5.401ZM7.52112 16.0064V17.6275H9.14221V16.0064H7.52112ZM9.64221 16.0064V17.6275H11.2643V16.0064H9.64221ZM11.7643 16.0064V17.6275H13.3854V16.0064H11.7643ZM13.8854 16.0064V17.6275H15.5065V16.0064H13.8854ZM16.0065 16.0064V17.6275H17.6276V16.0064H16.0065ZM18.1276 16.0064V17.6275H19.7496V16.0064H18.1276ZM20.2496 16.0064V17.6275H21.8707V16.0064H20.2496ZM22.3707 16.0064V17.6275H23.9918V16.0064H22.3707ZM24.4918 16.0064V17.6275H26.1129V16.0064H24.4918ZM26.6129 16.0064V17.6275H28.235V16.0064H26.6129ZM28.734 16.0064V17.6275H30.3561V16.0064H28.734ZM30.8561 16.0064V17.6275H32.4762V16.0064H30.8561ZM32.9772 16.0064V17.6275H34.5983V16.0064H32.9772ZM35.0983 16.0064V17.6275H36.7194V16.0064H35.0983ZM37.2203 16.0064V17.6275H38.8414V16.0064H37.2203ZM1.15686 13.8853V15.5064H2.77893V13.8853H1.15686ZM3.27893 13.8853V15.5064H4.90002V13.8853H3.27893ZM5.401 13.8853V15.5064H7.02112V13.8853H5.401ZM7.52112 13.8853V15.5064H9.14221V13.8853H7.52112ZM9.64221 13.8853V15.5064H11.2643V13.8853H9.64221ZM11.7643 13.8853V15.5064H13.3854V13.8853H11.7643ZM13.8854 13.8853V15.5064H15.5065V13.8853H13.8854ZM16.0065 13.8853V15.5064H17.6276V13.8853H16.0065ZM18.1276 13.8853V15.5064H19.7496V13.8853H18.1276ZM20.2496 13.8853V15.5064H21.8707V13.8853H20.2496ZM22.3707 13.8853V15.5064H23.9918V13.8853H22.3707ZM24.4918 13.8853V15.5064H26.1129V13.8853H24.4918ZM26.6129 13.8853V15.5064H28.235V13.8853H26.6129ZM28.734 13.8853V15.5064H30.3561V13.8853H28.734ZM30.8561 13.8853V15.5064H32.4762V13.8853H30.8561ZM32.9772 13.8853V15.5064H34.5983V13.8853H32.9772ZM35.0983 13.8853V15.5064H36.7194V13.8853H35.0983ZM37.2203 13.8853V15.5064H38.8414V13.8853H37.2203ZM3.27893 11.7642V13.3853H4.90002V11.7642H3.27893ZM5.401 11.7642V13.3853H7.02112V11.7642H5.401ZM7.52112 11.7642V13.3853H9.14221V11.7642H7.52112ZM9.64221 11.7642V13.3853H11.2643V11.7642H9.64221ZM11.7643 11.7642V13.3853H13.3854V11.7642H11.7643ZM13.8854 11.7642V13.3853H15.5065V11.7642H13.8854ZM16.0065 11.7642V13.3853H17.6276V11.7642H16.0065ZM18.1276 11.7642V13.3853H19.7496V11.7642H18.1276ZM20.2496 11.7642V13.3853H21.8707V11.7642H20.2496ZM22.3707 11.7642V13.3853H23.9918V11.7642H22.3707ZM24.4918 11.7642V13.3853H26.1129V11.7642H24.4918ZM26.6129 11.7642V13.3853H28.235V11.7642H26.6129ZM28.734 11.7642V13.3853H30.3561V11.7642H28.734ZM30.8561 11.7642V13.3853H32.4762V11.7642H30.8561ZM32.9772 11.7642V13.3853H34.5983V11.7642H32.9772ZM35.0983 11.7642V13.3853H36.7194V11.7642H35.0983ZM3.27893 9.64217V11.2642H4.90002V9.64217H3.27893ZM5.401 9.64217V11.2642H7.02112V9.64217H5.401ZM7.52112 9.64217V11.2642H9.14221V9.64217H7.52112ZM9.64221 9.64217V11.2642H11.2643V9.64217H9.64221ZM11.7643 9.64217V11.2642H13.3854V9.64217H11.7643ZM13.8854 9.64217V11.2642H15.5065V9.64217H13.8854ZM16.0065 9.64217V11.2642H17.6276V9.64217H16.0065ZM18.1276 9.64217V11.2642H19.7496V9.64217H18.1276ZM20.2496 9.64217V11.2642H21.8707V9.64217H20.2496ZM22.3707 9.64217V11.2642H23.9918V9.64217H22.3707ZM24.4918 9.64217V11.2642H26.1129V9.64217H24.4918ZM26.6129 9.64217V11.2642H28.235V9.64217H26.6129ZM28.734 9.64217V11.2642H30.3561V9.64217H28.734ZM30.8561 9.64217V11.2642H32.4762V9.64217H30.8561ZM32.9772 9.64217V11.2642H34.5983V9.64217H32.9772ZM35.0983 9.64217V11.2642H36.7194V9.64217H35.0983ZM5.40002 7.52108L5.401 9.14217H7.02112V7.52108H5.40002ZM7.52112 7.52108V9.14217H9.14221V7.52108H7.52112ZM9.64221 7.52108V9.14217H11.2643V7.52108H9.64221ZM11.7643 7.52108V9.14217H13.3854V7.52108H11.7643ZM13.8854 7.52108V9.14217H15.5065V7.52108H13.8854ZM16.0065 7.52108V9.14217H17.6276V7.52108H16.0065ZM18.1276 7.52108V9.14217H19.7496V7.52108H18.1276ZM20.2496 7.52108V9.14217H21.8707V7.52108H20.2496ZM22.3707 7.52108V9.14217H23.9918V7.52108H22.3707ZM24.4918 7.52108V9.14217H26.1129V7.52108H24.4918ZM26.6129 7.52108V9.14217H28.235V7.52108H26.6129ZM28.734 7.52108V9.14217H30.3561V7.52108H28.734ZM30.8561 7.52108V9.14217H32.4762V7.52108H30.8561ZM32.9772 7.52108V9.14217H34.5983V7.52108H32.9772ZM7.52112 5.39999V7.02108H9.14221V5.39999H7.52112ZM9.64221 5.39999V7.02108H11.2643V5.39999H9.64221ZM11.7643 5.39999V7.02108H13.3854V5.39999H11.7643ZM13.8854 5.39999V7.02108H15.5065V5.39999H13.8854ZM16.0065 5.39999V7.02108H17.6276V5.39999H16.0065ZM18.1276 5.39999V7.02108H19.7496V5.39999H18.1276ZM20.2496 5.39999V7.02108H21.8707V5.39999H20.2496ZM22.3707 5.39999V7.02108H23.9918V5.39999H22.3707ZM24.4918 5.39999V7.02108H26.1129V5.39999H24.4918ZM26.6129 5.39999V7.02108H28.235V5.39999H26.6129ZM28.734 5.39999V7.02108H30.3561V5.39999H28.734ZM30.8561 5.39999V7.02108H32.4762V5.39999H30.8561ZM9.64221 3.27889V4.89999H11.2643V3.27889H9.64221ZM11.7643 3.27889V4.89999H13.3854V3.27889H11.7643ZM13.8854 3.27889V4.89999H15.5065V3.27889H13.8854ZM16.0065 3.27889V4.89999H17.6276V3.27889H16.0065ZM18.1276 3.27889V4.89999H19.7496V3.27889H18.1276ZM20.2496 3.27889V4.89999H21.8707V3.27889H20.2496ZM22.3707 3.27889V4.89999H23.9918V3.27889H22.3707ZM24.4918 3.27889V4.89999H26.1129V3.27889H24.4918ZM26.6129 3.27889V4.89999H28.235V3.27889H26.6129ZM28.734 3.27889V4.89999H30.3561V3.27889H28.734ZM24.4918 1.15682V2.77792H26.1129V1.15682H24.4918ZM22.3707 1.15682V2.77792H23.9918V1.15682H22.3707ZM20.2496 1.15682V2.77792H21.8707V1.15682H20.2496ZM18.1276 1.15682V2.77792H19.7496V1.15682H18.1276ZM16.0065 1.15682V2.77792H17.6276V1.15682H16.0065ZM13.8854 1.15682V2.77792H15.5065V1.15682H13.8854Z" fill="url(#paint0_linear_59_203)"/>
<defs>
<linearGradient id="paint0_linear_59_203" x1="-0.988037" y1="22.4992" x2="40.012" y2="22.4992" gradientUnits="userSpaceOnUse">
<stop stop-color="#6DD5D8"/>
<stop offset="1" stop-color="white"/>
</linearGradient>
</defs>
</svg>
