<?xml version="1.0" encoding="UTF-8" standalone="no"?>
<!-- Created with Inkscape (http://www.inkscape.org/) -->

<svg
   width="100"
   height="100"
   viewBox="0 0 26.458333 26.458333"
   version="1.1"
   id="svg1"
   xml:space="preserve"
   xmlns="http://www.w3.org/2000/svg"
   xmlns:svg="http://www.w3.org/2000/svg"><defs
     id="defs1" /><g
     id="layer1"><path
       style="fill:#202020;fill-opacity:1;stroke-width:0.265208"
       d="M 12.983617,20.709479 C 12.422441,20.580042 12.389605,20.545322 6.9495366,14.329152 4.005751,10.965393 1.5479712,8.1377515 1.4878044,8.0455035 1.3024079,7.7612548 1.2300261,7.2891431 1.3127238,6.9035373 1.4193906,6.4061678 1.9070744,5.9250014 2.4148991,5.8160924 c 0.518089,-0.11111 21.1105359,-0.11111 21.6286239,0 0.507824,0.108909 0.995508,0.5900754 1.102175,1.0874449 0.08232,0.38387 0.01046,0.857475 -0.172723,1.1383669 -0.05887,0.090266 -2.516359,2.9177808 -5.461087,6.2833588 -4.259431,4.868173 -5.409527,6.143236 -5.625398,6.236638 -0.306125,0.132454 -0.693751,0.195813 -0.902873,0.147578 z"
       id="path5" /></g></svg>
