<?xml version="1.0" encoding="UTF-8" standalone="no"?>
<!-- Created with Inkscape (http://www.inkscape.org/) -->

<svg
   width="100"
   height="100"
   viewBox="0 0 26.458333 26.458333"
   version="1.1"
   id="svg1"
   xml:space="preserve"
   xmlns="http://www.w3.org/2000/svg" ><defs
     id="defs1" /><g
     id="layer1"><path
       style="fill:#7e7e7e;fill-opacity:1;stroke-width:0.182114"
       d="M 2.2523936,25.487962 C 1.7384066,25.365374 1.2788206,24.98416 1.0385916,24.481148 L 0.88925068,24.168434 V 18.346241 12.524038 L 1.0475696,12.203447 c 0.265551,-0.537727 0.760284,-0.906393 1.3442751,-1.001731 0.40812,-0.06663 7.9309963,-0.06148 8.2954063,0.0057 0.76668,0.141284 1.32659,0.698668 1.46647,1.459827 0.0678,0.368838 0.0729,10.94014 0.006,11.35039 -0.0956,0.582138 -0.46545,1.075338 -1.00483,1.34008 l -0.32155,0.157828 -4.1996573,0.008 c -2.346886,0.0046 -4.27959,-0.01145 -4.3808341,-0.03538 z m 13.3285574,-0.01351 c -0.66981,-0.182009 -1.1866,-0.760724 -1.30096,-1.456828 -0.0653,-0.397793 -0.0606,-4.832403 0.006,-5.192437 0.14214,-0.773501 0.70977,-1.328504 1.49723,-1.463903 0.21261,-0.03652 1.55918,-0.04855 4.33801,-0.0387 l 4.02969,0.01443 0.27733,0.111631 c 0.38714,0.155847 0.76847,0.517095 0.9642,0.913422 l 0.158,0.319962 v 2.743221 2.743221 l -0.14934,0.312714 c -0.1898,0.397427 -0.48957,0.696264 -0.88824,0.885463 l -0.31369,0.148887 -4.1986,0.0092 c -3.22595,0.0069 -4.2497,-0.0046 -4.41918,-0.05049 z m 0.0999,-10.246968 c -0.73276,-0.161835 -1.25757,-0.706981 -1.39522,-1.449294 -0.0684,-0.369101 -0.0731,-10.9377582 -0.005,-11.3523132 0.0968,-0.5892709 0.49363,-1.1042589 1.05191,-1.3651075 l 0.27595,-0.1289302 h 4.29512 4.29513 l 0.31368,0.1488634 c 0.39868,0.1892105 0.69845,0.4880478 0.88825,0.8854748 l 0.14934,0.3127023 0.015,5.6528119 c 0.0111,4.1670175 1.9e-4,5.7223545 -0.0412,5.9174045 -0.12038,0.566956 -0.56046,1.091985 -1.096,1.307574 l -0.27733,0.111631 -4.10209,0.0092 c -3.07616,0.0069 -4.16846,-0.0057 -4.36751,-0.04969 z M 2.3481867,9.0845067 C 1.8128046,8.9947445 1.3030886,8.6033857 1.0475396,8.0859246 L 0.88925068,7.7652994 V 5.022078 2.2788453 L 1.0385916,1.9661429 c 0.08214,-0.1719909 0.245015,-0.4080862 0.36195,-0.5246512 0.116932,-0.1165649 0.353765,-0.2789384 0.526294,-0.3608236 l 0.313689,-0.14886335 h 4.2951221 4.2951243 l 0.27595,0.12893015 c 0.55828,0.2608487 0.95512,0.7758367 1.05191,1.3651075 0.0659,0.4012624 0.0616,4.8349336 -0.005,5.1943604 -0.14036,0.7568996 -0.70708,1.3218407 -1.46635,1.4617622 -0.33494,0.061711 -7.9722043,0.064001 -8.3390293,0.00229 z"
       id="path1" /></g></svg>
