<?xml version="1.0" encoding="UTF-8" standalone="no"?>
<!-- Created with Inkscape (http://www.inkscape.org/) -->

<svg
   width="100"
   height="100"
   viewBox="0 0 26.458333 26.458333"
   version="1.1"
   id="svg1"
   xml:space="preserve"
   xmlns="http://www.w3.org/2000/svg"
   xmlns:svg="http://www.w3.org/2000/svg"><defs
     id="defs1" /><g
     id="layer1"><path
       style="fill:#7e7e7e;fill-opacity:1;stroke-width:0.184193"
       d="M 2.1444946,25.647112 C 1.6254548,25.522935 1.1613504,25.136767 0.91875964,24.627214 L 0.76794975,24.31044 V 18.412564 12.514686 L 0.9278257,12.18993 c 0.2681626,-0.544716 0.7677585,-0.918173 1.357493,-1.014753 0.4121333,-0.06749 8.0089763,-0.06231 8.3769733,0.0057 0.774222,0.143123 1.33964,0.707744 1.480886,1.478804 0.06845,0.373634 0.07366,11.082343 0.0056,11.497927 -0.09657,0.589697 -0.470029,1.089311 -1.014709,1.357494 l -0.32471,0.159876 -4.2409552,0.008 c -2.3699621,0.0044 -4.3216696,-0.0114 -4.4239092,-0.03583 z m 8.4162884,-1.615553 c 0.06758,-0.09648 0.07587,-0.711205 0.07587,-5.628814 0,-5.455524 -9.12e-4,-5.521649 -0.09746,-5.617972 -0.09587,-0.09587 -0.162447,-0.09746 -4.0584706,-0.09746 -3.506143,0 -3.9734419,0.0087 -4.0693153,0.07587 l -0.108314,0.07587 v 5.561295 c 0,5.106455 0.00661,5.568585 0.080654,5.650418 0.076893,0.08496 0.2677318,0.08912 4.0909188,0.08912 h 4.0102671 z m 5.043324,1.60183 c -0.676394,-0.184373 -1.198264,-0.770603 -1.313747,-1.475756 -0.066,-0.402962 -0.06121,-4.89522 0.0056,-5.259935 0.143533,-0.783553 0.716748,-1.345764 1.511953,-1.482926 0.214701,-0.03704 1.574516,-0.04919 4.38066,-0.03915 l 4.069316,0.01455 0.280063,0.113089 c 0.390945,0.15787 0.776022,0.52382 0.97367,0.925303 l 0.159565,0.324115 v 2.778882 2.77888 l -0.150812,0.316774 c -0.19167,0.402594 -0.494384,0.705307 -0.896977,0.896975 l -0.316774,0.150812 -4.239885,0.0096 c -3.257668,0.0073 -4.291487,-0.0046 -4.462635,-0.05117 z m 8.442826,-1.574172 c 0.0841,-0.0761 0.08912,-0.219051 0.08912,-2.531423 v -2.450766 l -0.108314,-0.07587 c -0.09587,-0.06715 -0.563169,-0.07587 -4.069312,-0.07587 -3.896025,0 -3.962602,0.0016 -4.058472,0.09746 -0.09483,0.09483 -0.09746,0.162448 -0.09746,2.498974 0,2.094675 0.0097,2.415344 0.07587,2.509818 l 0.07587,0.108314 h 4.001793 c 3.655325,0 4.009512,-0.007 4.09092,-0.08065 z m -8.341916,-8.805984 c -0.739959,-0.163939 -1.269927,-0.716172 -1.408933,-1.468132 -0.06912,-0.373904 -0.07385,-11.0799265 -0.0051,-11.4998756 0.09775,-0.5969258 0.498491,-1.1186142 1.062252,-1.38285063 l 0.278667,-0.13061043 h 4.337353 4.337357 l 0.316774,0.15080989 C 25.02598,1.1142435 25.328694,1.4169562 25.520364,1.8195516 l 0.150808,0.3167728 0.01515,5.7262833 c 0.01117,4.2211883 1.84e-4,5.7967333 -0.04156,5.9943213 -0.121565,0.574324 -0.565972,1.106183 -1.106778,1.324569 l -0.280062,0.113089 -4.142416,0.009 c -3.106414,0.0067 -4.209455,-0.0058 -4.410456,-0.05037 z m 8.322724,-1.569638 0.108314,-0.07587 V 8.0464315 c 0,-5.1064536 -0.0066,-5.5685841 -0.08065,-5.6504179 -0.07689,-0.084962 -0.267735,-0.089122 -4.090925,-0.089122 h -4.01026 l -0.07587,0.108314 c -0.06758,0.096484 -0.07587,0.7112025 -0.07587,5.6288132 0,5.4555232 9.12e-4,5.5216492 0.09746,5.6179702 0.09587,0.09587 0.162447,0.09746 4.058473,0.09746 3.506143,0 3.973442,-0.0087 4.069312,-0.07587 z M 2.2412615,9.0304099 C 1.7006158,8.9394645 1.1858863,8.5430381 0.9278257,8.0188424 L 0.76794975,7.6940874 V 4.9152059 2.1363244 L 0.91875964,1.8195516 C 1.0017046,1.6453261 1.1661848,1.4061647 1.284268,1.2880815 1.4023501,1.1699983 1.6415116,1.0055204 1.815737,0.92257423 L 2.1325098,0.77176434 h 4.3373549 4.3373543 l 0.278668,0.13061043 c 0.563766,0.26423643 0.964506,0.78592483 1.062257,1.38285063 0.06657,0.4064828 0.06221,4.8977771 -0.0051,5.2618837 -0.141737,0.766735 -0.714029,1.3390235 -1.480763,1.4807628 -0.338232,0.062522 -8.0505953,0.064847 -8.4210282,0.00251 z M 10.53918,7.4239988 c 0.09483,-0.094832 0.09746,-0.1624471 0.09746,-2.4989735 0,-2.0946765 -0.0097,-2.4153436 -0.07587,-2.5098174 L 10.4849,2.3068939 H 6.4831099 c -3.6553244,0 -4.0095125,0.00695 -4.09092,0.080654 -0.084085,0.076096 -0.089122,0.2190498 -0.089122,2.5314199 v 2.4507678 l 0.108314,0.075868 c 0.095869,0.067149 0.5631722,0.075868 4.0693153,0.075868 3.8960238,0 3.9626008,-0.0016 4.0584708,-0.097464 z"
       id="path2" /></g></svg>
