<?xml version="1.0" encoding="UTF-8" standalone="no"?>
<!-- Created with Inkscape (http://www.inkscape.org/) -->

<svg
   width="94.48819"
   height="94.48819"
   viewBox="0 0 25 25"
   version="1.1"
   id="svg1"
   xml:space="preserve"
   xmlns="http://www.w3.org/2000/svg"
   xmlns:svg="http://www.w3.org/2000/svg"><defs
     id="defs1" /><g
     id="layer1"
     transform="translate(-0.72916652,-0.72916681)"><path
       style="fill:#a5a5a5;fill-opacity:1;stroke-width:0.909879"
       d="M 3.2821581,25.692431 C 2.5859774,25.597712 2.2983242,25.52725 1.9826332,25.374111 1.3602012,25.072176 0.9904732,24.533386 0.8352917,23.70214 0.72781881,23.126452 0.72664389,18.353236 0.83383646,17.767946 1.0355371,16.666567 1.647764,16.054128 2.7539582,15.84716 c 0.5812309,-0.108747 5.3464022,-0.108747 5.927634,0 1.10763,0.207237 1.7083718,0.808873 1.9179288,1.920786 0.103374,0.548498 0.110673,5.425637 0.0089,5.904816 -0.247561,1.164882 -0.7531932,1.684853 -1.8966099,1.950399 -0.2553548,0.05931 -5.0529727,0.120511 -5.4295856,0.06927 z m 8.7498329,-0.360717 c 0.45614,-0.915421 0.552444,-1.716734 0.552444,-4.596671 0,-2.900739 -0.09033,-3.641277 -0.565374,-4.634439 -0.301621,-0.630608 -1.042065,-1.371871 -1.671976,-1.673827 -0.9920646,-0.475559 -1.7317834,-0.566 -4.6293151,-0.566 -2.8767542,0 -3.6771812,0.09641 -4.5915895,0.553056 l -0.3970139,0.198264 5.6836e-4,-2.740525 C 0.73073486,6.9487349 0.92850828,5.2414071 1.6698731,3.7547911 2.344407,2.4021892 3.6019167,1.4798116 5.2775989,1.1085427 6.8270895,0.76523259 7.5803163,0.7291668 13.200675,0.7291668 c 5.322442,0 5.966872,0.0231423 7.39606,0.26557791 2.706593,0.45912819 4.171456,1.80486949 4.749893,4.36363479 0.303689,1.3434019 0.382539,2.9627028 0.382539,7.8560995 0,4.893395 -0.07885,6.512696 -0.382539,7.856099 -0.54215,2.398246 -1.873601,3.73117 -4.269196,4.27392 -1.234911,0.279784 -2.987274,0.382699 -6.535336,0.383817 l -2.70815,8.52e-4 z m 1.566722,-11.259439 c 0.105764,-0.04608 1.22162,-1.11888 2.536159,-2.438308 1.291015,-1.295818 2.367234,-2.3560341 2.391594,-2.3560341 0.02436,0 0.0443,0.5983773 0.0443,1.3297281 0,1.238077 0.0083,1.343163 0.120338,1.524653 0.175619,0.284473 0.454278,0.435866 0.80227,0.435866 0.373718,0 0.64511,-0.173706 0.823404,-0.527024 0.130628,-0.258863 0.13205,-0.287982 0.13205,-2.7026177 0,-1.4239024 -0.02404,-2.5248673 -0.05771,-2.6423776 -0.07629,-0.2663131 -0.385063,-0.5779642 -0.643961,-0.649967 -0.121064,-0.03367 -1.227048,-0.05799 -2.645864,-0.05818 -2.411884,-3.241e-4 -2.440633,0.00108 -2.699241,0.1318698 -0.352929,0.1784911 -0.526443,0.4501834 -0.526443,0.8243154 0,0.3483763 0.151226,0.6273437 0.435384,0.8031577 0.18129,0.112167 0.28626,0.1204705 1.522968,0.1204705 0.730542,0 1.328258,0.019407 1.328258,0.043127 0,0.02372 -1.080964,1.1275682 -2.402142,2.4529969 -2.100914,2.107673 -2.407157,2.437498 -2.442144,2.630199 -0.141574,0.779782 0.577054,1.384702 1.280787,1.078125 z"
       id="path3" /></g></svg>
