<?xml version="1.0" encoding="UTF-8" standalone="no"?>
<!-- Created with Inkscape (http://www.inkscape.org/) -->

<svg
   width="100"
   height="100"
   viewBox="0 0 26.458333 26.458333"
   version="1.1"
   id="svg1"
   xml:space="preserve"
   xmlns="http://www.w3.org/2000/svg"
   xmlns:svg="http://www.w3.org/2000/svg"><defs
     id="defs1" /><g
     id="layer1"><path
       style="fill:#202020;fill-opacity:1;stroke-width:0.666808"
       d="m 3.2821642,25.692417 c -0.69619,-0.09472 -0.98384,-0.165181 -1.29953,-0.31832 -0.62243,-0.301935 -0.99216003,-0.840725 -1.14734003,-1.67197 -0.10747,-0.575689 -0.10865,-5.348901 -0.001,-5.934192 0.20170003,-1.101378 0.81393003,-1.713816 1.92012003,-1.920784 0.58123,-0.108747 5.3464,-0.108747 5.927635,0 1.10763,0.207237 1.7083708,0.808872 1.9179288,1.920784 0.103373,0.548499 0.110672,5.425635 0.0088,5.904815 -0.24756,1.164879 -0.7531918,1.684852 -1.8966088,1.950397 -0.255354,0.0593 -5.052975,0.12051 -5.429585,0.06927 z M 12.031992,25.3317 c 0.45614,-0.91542 0.552445,-1.716732 0.552445,-4.596669 0,-2.900737 -0.09034,-3.641274 -0.565374,-4.634437 -0.301622,-0.630606 -1.042066,-1.371869 -1.671976,-1.673825 -0.9920638,-0.475559 -1.7317838,-0.566 -4.6293128,-0.566 -2.87676,0 -3.67718,0.09641 -4.59159,0.553056 l -0.39702003,0.198264 5.7e-4,-2.740523 c 0.001,-4.9228353 0.19878,-6.6301623 0.94014003,-8.1167773 0.67453,-1.352602 1.93204,-2.274979 3.60773,-2.646248 1.54949,-0.34330803 2.30271,-0.37937403 7.9230718,-0.37937403 5.322443,0 5.966873,0.02314 7.39606,0.265577 2.706593,0.45912803 4.171457,1.80486803 4.749893,4.36363203 0.30369,1.343401 0.38254,2.962701 0.38254,7.8560953 0,4.893393 -0.07885,6.512693 -0.38254,7.856095 -0.54215,2.398246 -1.8736,3.731169 -4.269195,4.273918 -1.234912,0.279783 -2.987274,0.382698 -6.535336,0.383816 l -2.70815,8.67e-4 z m 6.39885,-11.327675 c 0.307945,-0.230258 0.404021,-0.418013 0.404021,-0.789554 0,-0.37149 -0.09603,-0.559195 -0.403926,-0.789554 -0.15106,-0.113017 -0.25481,-0.122331 -1.547606,-0.138919 l -1.385691,-0.01778 2.412284,-2.4205273 c 2.120579,-2.127824 2.420215,-2.450723 2.477854,-2.670234 0.187931,-0.715702 -0.539338,-1.380042 -1.208002,-1.103472 -0.160885,0.06654 -0.927165,0.793829 -2.616036,2.482913 l -2.388503,2.3888013 -0.01777,-1.3879033 c -0.01657,-1.294908 -0.02587,-1.398763 -0.13877,-1.549997 -0.230105,-0.308239 -0.417602,-0.404372 -0.788682,-0.404372 -0.371127,0 -0.558673,0.09618 -0.788681,0.404464 -0.117167,0.15704 -0.121559,0.242654 -0.138472,2.6990713 -0.0096,1.395287 -0.0019,2.622035 0.01701,2.726108 0.0429,0.235508 0.289425,0.535478 0.525754,0.639753 0.142687,0.06295 0.710656,0.07627 2.80109,0.06566 2.546041,-0.01293 2.626811,-0.01683 2.784122,-0.134453 z"
       id="path4" /></g></svg>
