<?xml version="1.0" encoding="UTF-8" standalone="no"?>
<!-- Created with Inkscape (http://www.inkscape.org/) -->

<svg
   width="77.714981"
   height="92.641518"
   viewBox="0 0 20.562088 24.511401"
   version="1.1"
   id="svg1"
   xml:space="preserve"
   xmlns="http://www.w3.org/2000/svg"
   xmlns:svg="http://www.w3.org/2000/svg"><defs
     id="defs1" /><g
     id="layer1"
     transform="translate(-2.9481225,-0.97346569)"><path
       style="fill:#7e7e7e;fill-opacity:1;stroke-width:0.181171"
       d="M 8.8351643,24.101642 C 6.8270976,23.347728 5.1362128,22.687749 5.0776366,22.635021 4.8735022,22.451258 4.8405653,22.281665 4.8405653,21.41422 v -0.816433 l 0.2516608,-0.0011 c 0.5716651,-0.0026 1.079019,-0.21986 1.5008413,-0.642507 0.3061205,-0.306723 0.4656469,-0.583134 0.5761899,-0.998376 0.09465,-0.35554 0.09465,-2.59189 0,-2.947428 C 7.0587143,15.593062 6.8991879,15.316651 6.5930674,15.009928 6.1712451,14.587282 5.6638912,14.370083 5.0922261,14.367421 l -0.2516608,-0.0011 7.84e-5,-0.874811 c 6.16e-5,-0.737195 0.013274,-0.901054 0.083885,-1.041629 0.114184,-0.227273 0.3612748,-0.38426 0.606198,-0.385147 0.140938,-5.07e-4 1.1470881,0.354659 3.5520826,1.253873 1.8454937,0.69002 3.3717117,1.268528 3.3915987,1.285573 0.01988,0.01704 0.03069,2.469381 0.02397,5.449638 l -0.01221,5.41865 z m 5.1248177,-4.060767 0.01221,-5.444011 3.375178,-1.265746 c 2.446203,-0.917367 3.43046,-1.265745 3.576042,-1.265745 0.249313,0 0.495038,0.154751 0.610437,0.384434 0.07063,0.140575 0.08382,0.304435 0.08388,1.041629 l 7.3e-5,0.874812 -0.251655,5.61e-4 c -0.967199,0.0022 -1.875014,0.731519 -2.094254,1.68251 -0.06305,0.273475 -0.06305,2.591904 0,2.865379 0.08766,0.380205 0.292657,0.739249 0.592841,1.038307 0.412755,0.411203 0.952911,0.642964 1.501413,0.644204 l 0.251655,5.6e-4 v 0.816433 c 0,0.874105 -0.03209,1.034617 -0.245477,1.228563 -0.0905,0.08224 -3.526892,1.400016 -7.052814,2.704578 l -0.371704,0.137525 z M 4.166091,19.094195 C 3.675197,18.961836 3.2968853,18.636928 3.0728634,18.155294 2.9708494,17.935984 2.9490297,17.817987 2.9481727,17.48101 c -0.00112,-0.365338 0.015457,-0.44196 0.1552192,-0.725849 0.1826955,-0.371112 0.4440845,-0.625196 0.8204024,-0.797481 0.2200233,-0.10073 0.3622885,-0.127054 0.7795743,-0.144245 0.4661283,-0.01921 0.5275216,-0.01143 0.7072936,0.08961 0.3553719,0.199733 0.3885999,0.334754 0.3885999,1.578974 0,0.984694 -0.00807,1.08889 -0.098749,1.276228 -0.1434022,0.296232 -0.3863989,0.402458 -0.9110305,0.39826 -0.2223643,-0.0018 -0.5028903,-0.02981 -0.6233917,-0.06231 z m 16.896785,-0.02812 c -0.119091,-0.06086 -0.236087,-0.172255 -0.299591,-0.28525 -0.09866,-0.175544 -0.104198,-0.24455 -0.104198,-1.298811 0,-1.04526 0.0062,-1.124474 0.10152,-1.294049 0.05584,-0.09935 0.187568,-0.228992 0.292729,-0.288099 0.173158,-0.09732 0.239407,-0.10548 0.701648,-0.08643 0.417286,0.01719 0.559547,0.04352 0.779575,0.144246 0.376318,0.172284 0.637702,0.426369 0.820402,0.797481 0.139757,0.283888 0.156144,0.360512 0.155214,0.725849 -0.0011,0.338349 -0.02251,0.454692 -0.126314,0.677849 -0.174811,0.375897 -0.429462,0.638469 -0.792602,0.817243 -0.277848,0.136784 -0.364142,0.154777 -0.821719,0.171336 -0.44619,0.01615 -0.53614,0.0058 -0.706665,-0.08136 z M 10.414783,12.285934 C 8.9327703,11.72718 7.7075943,11.257392 7.6921643,11.241961 c -0.08406,-0.08407 1.020023,-0.862339 1.741162,-1.22734 0.7955347,-0.4026558 0.6907047,-0.3955838 1.3129587,-0.088574 1.64453,0.811387 3.32125,0.811387 4.965779,0 0.619018,-0.305412 0.513038,-0.311074 1.280006,0.06838 0.506704,0.250694 1.24288,0.731798 1.581847,1.033767 l 0.239676,0.213512 -0.119841,0.04562 c -2.231175,0.849445 -5.423119,2.023108 -5.492123,2.019432 -0.05074,-0.0027 -1.30484,-0.462078 -2.786846,-1.020831 z M 12.589712,9.0464629 C 10.988867,8.7551856 9.7871463,7.6872102 9.3149693,6.1361812 9.2008853,5.7614136 9.1864473,5.635931 9.1864473,5.0189395 c 0,-0.6169908 0.01445,-0.7424734 0.128522,-1.117241 0.423911,-1.3924943 1.4060857,-2.3745173 2.7969647,-2.7965401 0.367515,-0.11151148 0.509086,-0.12853042 1.093273,-0.13142702 0.558375,-0.002745 0.733796,0.0146847 1.04443,0.10390342 1.485321,0.4266142 2.495975,1.4374095 2.920441,2.9208421 0.152878,0.5343061 0.152878,1.5066194 0,2.0409254 -0.421693,1.473756 -1.440383,2.4984701 -2.894656,2.9117723 -0.396843,0.1127816 -1.306855,0.1642228 -1.68571,0.095291 z"
       id="path3" /></g></svg>
