<?xml version="1.0" encoding="UTF-8" standalone="no"?>
<!-- Created with Inkscape (http://www.inkscape.org/) -->

<svg
   width="91.987869"
   height="90.116119"
   viewBox="0 0 24.338457 23.843223"
   version="1.1"
   id="svg1"
   xml:space="preserve"
   xmlns="http://www.w3.org/2000/svg"
   xmlns:svg="http://www.w3.org/2000/svg"><defs
     id="defs1" /><g
     id="layer1"
     transform="translate(-1.0599381,-1.3075544)"><path
       style="fill:#7e7e7e;fill-opacity:1;stroke-width:0.200253"
       d="m 16.216698,22.3123 c -0.02817,-2.673794 -0.03556,-2.842912 -0.127408,-2.914041 -0.218581,-0.169279 -1.405998,-0.714052 -1.938717,-0.889457 -1.048096,-0.345088 -2.34519,-0.589752 -3.496864,-0.659584 l -0.622555,-0.03776 v 3.510727 3.51072 H 9.9019431 c -0.2788481,0 -1.7208747,-0.277773 -2.587315,-0.498392 C 6.4741632,24.120516 5.0836595,23.660931 4.980523,23.563063 4.956492,23.540253 5.028019,23.504933 5.1394733,23.484583 5.7722847,23.369029 6.5968219,22.757055 6.9730598,22.12369 7.298142,21.576445 7.3977288,21.169444 7.3704931,20.499432 7.3428852,19.820242 7.2278307,19.459295 6.8731122,18.939002 6.0964033,17.799746 4.6197848,17.350895 3.3445379,17.866421 l -0.302111,0.122134 -0.052675,-0.167456 c -0.299796,-0.953048 -1.9618443,-7.052434 -1.9293435,-7.080294 0.047641,-0.04081 0.9255285,-0.276918 0.9452568,-0.254193 0.00679,0.0078 0.4475524,1.552115 0.9794122,3.431703 0.5318599,1.879588 0.9760321,3.433442 0.9870455,3.45301 0.011016,0.01953 0.2045578,-0.145036 0.4300943,-0.365784 1.4107317,-1.3808 3.4387209,-2.477716 5.8600038,-3.169615 l 0.628447,-0.179584 1.475997,1.164162 c 0.811802,0.640291 1.484934,1.16417 1.495852,1.16417 0.01091,0 0.681618,-0.522185 1.490445,-1.160409 l 1.470596,-1.160402 0.464514,0.124308 c 2.956404,0.791185 5.53855,2.369703 6.886522,4.209874 0.801313,1.093895 1.351056,2.711562 1.198267,3.526007 l -0.03778,0.201357 -0.190167,-0.337451 C 24.77522,20.731943 23.949255,20.097001 23.316742,19.982579 l -0.198689,-0.03594 v -1.044937 c 0,-0.574716 -0.0104,-1.055349 -0.02313,-1.068073 -0.01272,-0.01274 -0.316719,-0.0046 -0.675539,0.01777 -1.195635,0.07507 -2.67244,0.373421 -3.713608,0.750311 -0.53094,0.192195 -1.383279,0.599746 -1.646984,0.787524 l -0.154203,0.109798 0.02504,2.825877 0.02504,2.82587 h -0.354032 -0.354033 z m 5.915274,2.655523 c -0.431319,-0.09626 -0.688423,-0.234084 -1.045499,-0.560427 -0.908422,-0.830251 -0.939748,-2.253611 -0.06921,-3.144936 0.572657,-0.586343 1.415359,-0.806268 2.189012,-0.571276 1.764713,0.536016 2.165644,2.849755 0.677189,3.90801 -0.51052,0.362961 -1.162257,0.50013 -1.751489,0.368629 z M 4.0755133,22.763546 c -1.1324649,-0.1897 -1.9793882,-1.379952 -1.7909732,-2.517002 0.1081766,-0.652826 0.5485535,-1.315026 1.0276952,-1.545364 0.705042,-0.338938 0.9814925,-0.384299 1.5753767,-0.258495 0.9158905,0.194018 1.6216717,0.935 1.7442405,1.831238 0.1633153,1.194188 -0.6067331,2.267654 -1.7872902,2.491546 -0.3190425,0.0605 -0.3975408,0.06026 -0.769049,-0.0023 z M 12.82101,13.360588 C 9.8008959,12.787955 7.6934118,9.9130024 8.0106814,6.7985194 8.2291271,4.6541582 9.4306346,2.8360416 11.233891,1.9211742 c 1.913654,-0.9708765 4.206549,-0.7780638 5.89975,0.496126 1.53703,1.1566636 2.434529,2.984293 2.434529,4.9575753 0,2.8358795 -1.808413,5.2123935 -4.501959,5.9162315 -0.542342,0.141709 -1.678772,0.176884 -2.245201,0.06949 z"
       id="path4" /></g></svg>
