<?xml version="1.0" standalone="no"?>
<!DOCTYPE svg PUBLIC "-//W3C//DTD SVG 20010904//EN"
 "http://www.w3.org/TR/2001/REC-SVG-20010904/DTD/svg10.dtd">
<svg version="1.0" xmlns="http://www.w3.org/2000/svg"
 width="994.000000pt" height="994.000000pt" viewBox="0 0 994.000000 994.000000"
 preserveAspectRatio="xMidYMid meet">
<metadata>
Created by potrace 1.14, written by Peter Selinger 2001-2017
</metadata>
<g transform="translate(0.000000,994.000000) scale(0.100000,-0.100000)"
fill="#000000" stroke="none">
<path d="M8640 9440 c-22 -7 -265 -74 -312 -86 -10 -2 -28 -6 -40 -10 -13 -3
-34 -7 -47 -10 -13 -3 -32 -9 -43 -15 -10 -5 -18 -8 -18 -5 0 3 -15 0 -32 -5
-71 -22 -164 -48 -188 -53 -14 -2 -83 -21 -155 -41 -71 -20 -137 -38 -145 -40
-51 -11 -147 -37 -160 -42 -8 -3 -22 -7 -30 -8 -8 -2 -24 -6 -35 -9 -11 -3
-41 -11 -67 -17 -48 -13 -56 -23 -64 -94 -1 -11 -5 -31 -8 -45 -4 -14 -9 -38
-11 -55 -5 -29 -34 -169 -39 -190 -3 -10 -12 -60 -20 -105 -3 -14 -7 -34 -10
-45 -2 -11 -11 -58 -20 -105 -9 -47 -21 -103 -26 -125 -5 -22 -11 -53 -14 -70
-2 -16 -13 -73 -25 -125 -11 -52 -23 -111 -26 -130 -3 -19 -8 -42 -10 -50 -2
-8 -7 -31 -10 -50 -3 -19 -17 -87 -30 -150 -14 -63 -27 -131 -29 -150 -3 -19
-5 -35 -6 -35 -1 0 -3 -9 -5 -20 -7 -35 -23 -109 -28 -131 -3 -12 -8 -37 -11
-55 -6 -36 -9 -52 -26 -135 -6 -28 -13 -64 -16 -80 -3 -16 -9 -45 -14 -64 -5
-19 -11 -52 -14 -72 -3 -21 -10 -57 -15 -80 -6 -24 -12 -56 -15 -73 -11 -59
-16 -84 -37 -181 -11 -55 -22 -110 -23 -124 -2 -14 -7 -36 -11 -50 -5 -14 -9
-36 -10 -50 -2 -14 -12 -68 -23 -120 -12 -52 -23 -108 -26 -125 -3 -16 -7 -41
-10 -55 -9 -40 -47 -233 -52 -260 -4 -22 -13 -66 -20 -95 -1 -5 -6 -28 -9 -50
-9 -52 -13 -70 -15 -70 -1 0 -3 -9 -4 -20 -2 -11 -8 -45 -14 -75 -6 -30 -14
-67 -17 -82 -3 -16 -8 -40 -11 -55 -4 -16 -7 -38 -7 -50 -1 -13 -4 -23 -7 -23
-3 0 -6 -8 -6 -17 -1 -10 -4 -34 -8 -53 -13 -66 -20 -105 -21 -110 -1 -3 -5
-23 -10 -45 -9 -48 -13 -67 -20 -97 -3 -13 -14 -70 -25 -128 -25 -131 -24
-129 -55 -280 -14 -69 -27 -136 -30 -150 -3 -14 -9 -47 -15 -75 -6 -27 -12
-61 -15 -75 -3 -14 -17 -83 -31 -155 -14 -71 -28 -139 -30 -150 -2 -11 -6 -29
-8 -40 -2 -11 -10 -49 -17 -84 -9 -50 -14 -61 -23 -49 -11 15 -101 118 -146
167 -14 15 -47 54 -75 86 -27 32 -59 68 -70 79 -11 12 -45 50 -75 85 -30 35
-64 74 -75 86 -11 11 -42 47 -70 79 -27 32 -55 64 -61 70 -6 6 -45 51 -87 100
-43 48 -83 94 -90 100 -7 7 -32 37 -57 66 -95 112 -130 146 -131 128 -2 -19
-5 -36 -9 -40 -1 -2 -3 -12 -5 -23 -11 -65 -22 -124 -40 -205 -3 -14 -7 -36
-10 -50 -8 -43 -24 -124 -30 -150 -3 -14 -7 -37 -10 -52 -2 -15 -6 -35 -9 -45
-3 -10 -8 -31 -11 -48 -2 -16 -7 -41 -10 -55 -3 -14 -8 -36 -10 -50 -12 -70
-18 -98 -31 -159 -9 -36 -17 -78 -19 -94 -6 -36 -12 -66 -19 -97 -3 -14 -8
-36 -10 -50 -3 -14 -23 -115 -46 -225 -22 -110 -42 -213 -45 -230 -3 -16 -10
-51 -16 -77 -8 -39 -8 -51 3 -62 8 -7 34 -37 59 -66 24 -29 55 -65 69 -80 14
-16 52 -59 85 -96 33 -37 68 -76 78 -86 9 -10 17 -20 17 -23 0 -2 15 -19 33
-37 17 -19 53 -58 78 -88 26 -30 61 -71 79 -90 17 -19 50 -57 73 -84 23 -27
49 -56 57 -65 9 -9 43 -47 75 -86 33 -38 71 -82 85 -96 14 -15 48 -53 75 -84
28 -32 65 -74 82 -94 18 -20 33 -39 33 -43 0 -3 20 0 45 8 25 7 45 11 45 9 0
-2 16 3 35 11 19 8 35 11 35 8 0 -4 6 -2 13 3 6 6 19 11 27 11 8 0 58 12 110
27 52 15 102 29 110 31 8 1 83 21 165 44 83 22 159 43 170 45 71 16 86 20 105
28 13 5 217 60 269 73 68 16 206 53 206 56 0 0 22 6 50 12 45 12 50 16 57 47
9 44 19 98 23 126 2 11 6 29 9 40 3 10 8 34 11 53 3 19 10 51 15 70 5 19 11
51 14 70 2 19 7 46 10 60 4 14 9 39 12 55 3 17 9 48 14 70 5 22 12 56 15 75 3
19 10 51 15 70 5 19 11 52 14 72 3 21 11 59 17 85 6 27 12 59 14 73 3 14 7 36
10 50 2 14 10 50 16 80 6 30 15 74 20 97 5 22 11 58 14 80 3 21 8 45 11 53 5
14 27 122 39 195 8 45 13 70 15 70 1 0 3 11 5 25 2 14 6 34 8 45 3 11 15 72
27 135 12 63 24 122 27 130 3 8 7 24 8 35 4 32 16 99 21 117 3 9 7 27 9 40 19
96 25 126 30 148 3 14 8 40 11 59 3 18 8 42 10 52 2 11 6 27 8 37 7 30 57 285
62 312 4 22 13 66 20 95 1 6 5 27 9 49 4 21 9 48 11 60 3 11 7 32 10 46 4 20
11 57 19 90 1 3 5 25 9 50 10 52 10 52 31 150 9 41 18 91 21 110 3 19 7 43 10
52 3 10 7 30 10 45 2 16 7 39 10 53 3 14 8 34 10 45 2 11 6 31 9 45 9 42 18
94 18 108 0 6 4 12 9 12 5 0 7 4 4 9 -4 5 0 38 8 73 8 34 18 79 21 98 9 52 11
62 19 100 4 19 9 44 11 55 2 11 4 20 5 20 1 0 3 9 5 20 4 28 10 58 62 315 25
124 47 234 49 245 4 28 12 65 18 95 3 14 11 50 17 80 5 30 13 66 15 80 3 14 7
34 8 45 1 12 6 26 10 33 4 7 5 12 3 12 -3 0 0 19 5 43 5 23 12 53 14 67 3 14
11 57 20 95 8 39 17 84 19 100 2 17 4 30 5 30 3 0 10 39 25 130 2 11 4 20 5
20 2 0 6 17 14 60 6 33 24 125 32 165 3 14 7 36 9 50 2 14 4 25 5 25 1 0 4 11
6 25 2 14 17 88 33 165 16 77 27 143 24 147 -2 5 1 8 7 8 6 0 9 4 6 8 -3 5 2
37 10 73 8 35 17 79 20 99 3 19 7 43 10 52 3 9 7 27 10 40 8 40 16 82 19 103
2 11 6 31 9 45 9 37 19 92 22 115 1 11 3 20 4 20 3 0 15 60 26 130 3 22 7 42
9 43 2 2 -19 27 -46 55 -27 29 -49 55 -49 60 0 9 -18 8 -50 -3z"/>
<path d="M8991 9083 c1 -5 0 -10 -1 -13 -1 -3 -3 -16 -5 -30 -2 -14 -8 -47
-14 -75 -11 -51 -12 -60 -31 -152 -6 -28 -12 -61 -13 -72 -1 -12 -5 -21 -10
-21 -4 0 -6 -4 -3 -8 3 -5 -10 -82 -29 -173 -18 -90 -36 -177 -39 -194 -2 -16
-7 -41 -10 -55 -3 -14 -13 -59 -21 -100 -8 -41 -17 -86 -20 -100 -3 -14 -12
-59 -20 -100 -8 -41 -17 -86 -20 -100 -10 -49 -45 -226 -50 -255 -3 -16 -16
-81 -29 -143 l-23 -114 26 -31 c14 -17 33 -39 41 -47 8 -9 34 -38 58 -65 40
-47 73 -85 188 -215 27 -31 78 -89 114 -130 36 -40 76 -85 89 -99 13 -14 37
-43 55 -65 17 -21 42 -50 56 -65 14 -14 54 -60 90 -101 35 -41 71 -82 80 -91
8 -9 38 -42 65 -74 66 -76 76 -87 82 -81 5 4 16 54 28 121 2 11 6 31 10 45 4
14 7 32 7 40 0 8 9 53 20 99 10 47 17 90 14 97 -2 6 -1 15 4 20 5 5 11 27 13
49 3 22 8 47 11 55 3 8 7 26 10 40 2 14 14 75 26 135 12 61 24 119 25 130 2
11 6 31 10 45 5 24 12 59 20 105 2 11 9 43 15 70 6 28 13 66 16 85 3 19 7 43
10 52 3 10 7 28 10 40 2 13 6 32 8 43 13 65 69 343 72 360 2 11 5 32 8 46 6
25 -13 54 -84 129 -8 9 -44 49 -80 90 -36 41 -69 80 -75 86 -5 6 -35 39 -65
74 -30 34 -64 72 -75 84 -11 13 -45 51 -75 86 -30 35 -62 71 -70 80 -8 9 -44
50 -79 91 -36 41 -74 84 -85 96 -12 11 -39 43 -61 69 -22 26 -59 68 -81 93
-23 25 -54 59 -68 75 -14 16 -26 33 -26 37 0 5 -4 9 -10 9 -5 0 -9 -3 -9 -7z"/>
<path d="M5789 8676 c-2 -3 -16 -7 -29 -10 -14 -3 -101 -25 -195 -51 -93 -25
-177 -47 -185 -49 -8 -2 -22 -6 -30 -9 -18 -7 -156 -44 -191 -51 -13 -3 -58
-14 -99 -26 -41 -12 -82 -23 -90 -25 -8 -2 -48 -12 -87 -23 -40 -12 -73 -19
-73 -16 0 3 -9 0 -21 -6 -11 -6 -29 -13 -40 -16 -40 -9 -155 -39 -279 -74 -41
-11 -89 -23 -107 -26 -34 -7 -41 -17 -49 -73 -3 -20 -7 -42 -10 -50 -2 -8 -7
-30 -10 -50 -3 -20 -9 -52 -14 -71 -5 -19 -11 -51 -14 -70 -3 -19 -17 -89 -31
-155 -14 -66 -27 -131 -29 -145 -2 -14 -6 -38 -10 -55 -3 -16 -8 -41 -11 -54
-3 -14 -14 -70 -26 -125 -21 -103 -27 -132 -33 -176 -2 -14 -5 -25 -6 -25 -1
0 -3 -11 -6 -25 -7 -44 -13 -74 -24 -125 -7 -27 -14 -63 -17 -80 -3 -16 -20
-106 -40 -200 -19 -93 -36 -183 -39 -200 -5 -37 -12 -70 -14 -70 -1 0 -3 -11
-5 -25 -6 -42 -43 -224 -49 -240 -3 -8 -8 -33 -10 -55 -3 -22 -5 -40 -7 -40
-1 0 -3 -9 -4 -20 -1 -11 -9 -51 -18 -90 -9 -38 -18 -83 -21 -100 -6 -33 -64
-317 -71 -351 -3 -11 -7 -36 -9 -55 -3 -19 -5 -34 -6 -34 -2 0 -13 -50 -25
-120 -3 -16 -14 -70 -25 -120 -10 -49 -21 -101 -23 -115 -3 -14 -13 -63 -22
-110 -9 -47 -18 -96 -21 -110 -2 -14 -9 -45 -14 -70 -5 -25 -12 -56 -14 -70
-3 -14 -12 -58 -20 -97 -9 -40 -18 -87 -21 -105 -9 -55 -27 -142 -32 -158 -3
-8 -7 -26 -9 -40 -1 -14 -5 -36 -8 -50 -21 -96 -27 -131 -21 -140 3 -5 2 -10
-3 -10 -5 0 -12 -17 -15 -37 -3 -21 -8 -49 -12 -63 -3 -14 -8 -41 -11 -60 -3
-19 -7 -43 -10 -52 -3 -9 -6 -25 -8 -35 -25 -122 -48 -243 -52 -263 -2 -14 -7
-38 -11 -55 -9 -39 -9 -40 -22 -105 -5 -30 -13 -66 -16 -80 -3 -14 -8 -40 -11
-59 -3 -18 -8 -43 -10 -55 -8 -33 -22 -103 -50 -243 -10 -52 -13 -69 -18 -89
-5 -23 -16 -87 -21 -119 -2 -11 -4 -20 -5 -20 -2 0 -8 -25 -15 -70 -3 -22 -8
-48 -11 -57 -3 -10 -7 -30 -10 -45 -3 -16 -7 -35 -9 -43 -3 -8 -7 -33 -11 -55
-8 -49 -12 -70 -14 -70 -1 0 -3 -9 -4 -20 -5 -32 -46 -246 -56 -290 -6 -22
-12 -51 -14 -65 -2 -14 -7 -36 -10 -50 -3 -14 -8 -36 -10 -50 -3 -14 -7 -35
-10 -46 -2 -12 -7 -37 -10 -55 -3 -19 -8 -45 -11 -59 -4 -14 -8 -34 -10 -45
-4 -26 -66 -335 -71 -357 -2 -10 -6 -28 -9 -40 -3 -13 -8 -39 -11 -58 -3 -19
-7 -42 -10 -50 -3 -8 -8 -35 -11 -58 -5 -41 -4 -43 13 -34 11 6 22 10 27 11 4
1 8 1 10 2 1 0 9 2 17 4 8 1 76 19 150 39 74 20 142 39 151 41 26 6 510 135
564 151 28 7 102 27 165 44 63 16 131 35 150 41 19 5 42 11 50 13 8 1 35 8 60
15 25 7 52 14 60 16 51 10 70 19 74 33 7 26 25 114 30 147 3 17 7 41 11 55 3
14 7 36 10 50 3 14 7 36 10 50 2 14 9 48 15 75 12 64 17 88 30 150 6 28 13 65
16 84 3 18 8 42 10 52 4 19 9 40 19 89 3 14 7 36 10 50 3 14 8 39 11 55 4 17
8 39 10 50 1 11 9 53 18 92 9 40 18 85 21 100 8 46 14 76 25 128 6 28 12 59
14 70 4 23 13 68 21 105 3 14 7 39 10 55 3 17 10 53 17 80 6 28 12 59 12 70 1
11 4 25 8 30 3 6 9 33 12 60 4 28 9 58 12 67 5 16 9 35 19 88 3 14 7 36 10 50
3 14 8 41 11 60 3 19 7 37 9 40 2 3 6 26 10 50 3 25 8 53 11 62 3 9 7 27 9 40
3 13 10 47 16 75 5 29 8 57 5 62 -4 5 -2 12 3 15 8 5 21 59 27 109 1 9 2 18 4
20 2 3 9 35 15 67 2 14 11 58 19 97 19 86 24 116 41 218 2 11 4 20 5 20 2 0 7
23 15 70 4 22 8 42 10 45 2 3 6 26 10 50 8 50 13 75 15 75 1 0 3 11 5 25 2 14
15 84 30 155 28 134 34 166 40 200 12 69 18 97 31 153 7 34 13 66 13 70 -1 4
0 10 1 15 1 4 4 12 5 17 1 6 4 11 5 13 1 1 4 13 5 27 9 63 12 77 19 88 4 7 5
12 2 12 -2 0 2 28 10 62 8 35 17 78 20 97 3 18 8 42 10 52 7 34 11 53 19 94
13 73 36 185 51 255 3 14 7 39 9 55 3 17 9 48 15 70 5 22 12 60 16 85 3 25 8
48 11 53 2 4 6 20 9 35 2 15 11 61 19 102 9 41 17 86 20 100 3 14 12 59 20
100 18 88 23 116 30 150 3 14 7 36 10 50 3 14 8 36 10 50 5 31 44 218 51 245
2 11 7 37 9 58 2 21 7 41 9 46 3 4 8 26 11 47 2 21 7 50 11 64 17 75 30 150
26 155 -3 3 -1 5 4 5 5 0 9 10 10 23 0 12 4 36 7 52 4 17 12 57 18 90 13 68
13 69 24 110 5 16 9 41 11 55 1 14 3 25 4 25 1 0 3 11 4 25 2 14 6 34 9 45 3
11 9 34 11 50 3 17 10 53 16 80 6 28 13 64 15 80 3 17 8 41 11 55 4 14 8 32 9
40 12 69 17 97 21 112 3 10 7 28 9 40 3 13 9 46 15 73 6 28 12 61 15 75 6 41
13 69 20 80 6 10 -27 15 -36 6z"/>
<path d="M2705 7849 c-31 -10 -156 -43 -310 -84 -112 -30 -559 -149 -600 -161
-16 -4 -34 -9 -40 -9 -5 -1 -17 -5 -25 -8 -13 -5 -70 -21 -120 -33 -8 -2 -49
-13 -90 -25 -41 -11 -85 -21 -97 -22 -17 -1 -23 -9 -29 -46 -4 -26 -7 -49 -6
-53 1 -5 -2 -8 -6 -8 -4 0 -8 -10 -8 -22 -1 -22 -6 -50 -18 -108 -12 -54 -17
-76 -21 -100 -3 -14 -7 -36 -10 -50 -6 -29 -13 -65 -20 -100 -2 -14 -20 -104
-39 -200 -19 -96 -38 -190 -41 -208 -3 -18 -13 -65 -21 -105 -9 -39 -18 -83
-19 -97 -1 -14 -3 -25 -4 -25 -3 0 -11 -33 -16 -65 -2 -14 -6 -35 -8 -46 -3
-12 -8 -38 -11 -57 -3 -20 -15 -77 -26 -128 -11 -50 -18 -94 -15 -97 2 -3 1
-10 -4 -16 -5 -6 -11 -27 -14 -46 -3 -19 -8 -45 -11 -56 -2 -12 -7 -38 -10
-58 -3 -19 -11 -57 -17 -83 -6 -27 -12 -57 -13 -68 -1 -12 -6 -26 -10 -33 -4
-7 -5 -12 -3 -12 3 0 1 -17 -4 -37 -5 -21 -12 -54 -15 -73 -3 -19 -14 -73 -24
-120 -10 -47 -21 -103 -25 -125 -12 -67 -14 -78 -29 -146 -8 -36 -17 -81 -20
-100 -3 -20 -8 -42 -10 -50 -3 -8 -7 -30 -10 -49 -9 -54 -16 -93 -22 -113 -3
-10 -7 -31 -9 -47 -2 -16 -8 -46 -14 -67 -5 -21 -12 -51 -14 -68 -5 -30 -55
-283 -63 -320 -3 -11 -7 -31 -10 -45 -59 -309 -109 -546 -116 -548 -4 -2 -6
-8 -2 -13 3 -5 0 -33 -6 -62 -16 -79 -22 -110 -25 -132 -1 -11 -3 -20 -4 -20
-2 0 -4 -11 -7 -25 -7 -43 -23 -124 -29 -150 -3 -14 -8 -41 -11 -60 -3 -19 -8
-38 -10 -42 -2 -3 -7 -28 -10 -54 -3 -27 -8 -53 -12 -58 -3 -6 -7 -19 -8 -30
-3 -29 -12 -80 -29 -156 -4 -14 -8 -36 -11 -50 -2 -14 -7 -36 -9 -50 -3 -14
-8 -37 -10 -52 -3 -16 -7 -38 -10 -50 -2 -13 -18 -90 -34 -173 -17 -82 -33
-161 -36 -175 -3 -14 -8 -36 -11 -50 -2 -14 -14 -72 -26 -130 -11 -58 -22
-114 -24 -125 -2 -11 -5 -29 -7 -40 -5 -22 -19 -92 -23 -115 -3 -16 -17 -82
-19 -90 0 -3 -4 -21 -8 -40 -4 -19 -9 -46 -12 -60 -3 -14 -8 -41 -11 -60 -3
-19 -7 -43 -10 -52 -9 -29 -15 -62 -19 -95 -2 -17 -8 -49 -14 -70 -10 -36 -14
-56 -26 -128 -3 -16 -10 -50 -16 -75 -5 -25 -12 -59 -14 -75 -2 -17 -4 -30 -5
-30 -2 0 -6 -19 -14 -62 -3 -18 -12 -62 -20 -97 -7 -36 -11 -68 -8 -71 3 -3 1
-5 -4 -5 -5 0 -10 -10 -10 -22 -1 -25 -12 -93 -14 -93 -2 0 -7 -22 -14 -65 -4
-19 -9 -46 -11 -60 -3 -14 -7 -34 -9 -45 -3 -11 -9 -40 -15 -64 -12 -55 -8
-63 25 -51 14 6 30 8 35 4 5 -3 9 0 9 7 0 7 3 10 6 6 3 -3 17 -2 30 3 14 6 35
12 47 14 12 3 58 15 102 27 44 11 87 23 95 25 8 2 42 11 75 20 33 9 67 18 75
20 8 2 74 19 145 39 72 19 137 37 145 39 8 2 22 6 30 9 8 4 60 18 115 32 55
14 134 34 175 46 41 11 85 22 97 25 12 2 33 8 45 13 13 5 26 9 31 10 4 0 8 1
10 2 1 0 9 2 17 4 8 1 35 9 60 16 25 7 49 12 53 11 11 -3 67 27 68 36 0 4 2
14 4 22 1 8 5 29 8 45 8 39 14 70 37 180 10 50 21 104 24 120 3 17 7 41 10 55
3 13 8 41 11 61 3 20 10 50 15 68 5 17 9 34 9 36 0 5 6 37 15 85 2 8 5 26 9
40 3 14 11 54 17 90 6 36 16 83 21 105 5 22 11 51 13 65 2 14 7 36 10 50 3 14
8 36 10 50 3 14 7 35 10 46 2 12 7 37 10 55 3 19 8 45 11 59 4 14 8 34 10 45
4 26 66 335 71 357 2 10 6 28 9 40 3 13 8 39 11 58 3 19 7 42 9 50 2 8 7 29
10 45 2 17 7 39 9 50 16 73 47 225 51 250 3 17 7 41 10 55 3 14 7 36 10 50 6
30 33 165 41 200 3 14 7 36 10 50 4 24 19 101 28 145 3 11 12 56 21 100 21 98
22 104 29 146 3 19 8 45 11 59 3 14 7 37 10 53 3 15 12 59 20 97 19 88 26 129
30 157 2 11 6 29 9 40 3 10 8 32 11 48 2 17 7 41 10 55 3 14 8 39 10 55 3 17
8 37 10 45 2 8 7 31 10 50 3 19 8 42 10 50 2 8 7 31 10 50 3 19 8 42 10 50 2
8 7 29 10 45 5 29 8 46 22 110 3 17 7 41 9 55 1 14 3 25 4 25 2 0 6 18 14 63
4 18 13 64 21 102 8 38 17 84 20 102 3 18 8 40 11 49 2 9 7 32 9 50 3 19 7 45
11 59 3 14 7 34 9 45 2 11 8 41 14 68 6 26 14 64 17 85 3 20 8 46 11 57 4 11
8 27 9 35 1 8 5 29 8 45 3 17 8 46 11 65 3 19 8 42 11 50 3 8 8 29 11 45 9 63
12 75 16 82 3 5 8 28 11 53 7 52 14 85 16 85 1 0 3 12 4 28 5 52 5 52 101 -58
33 -38 69 -78 80 -91 11 -12 31 -35 45 -51 87 -100 158 -181 173 -198 11 -11
38 -42 60 -69 23 -26 53 -61 67 -76 14 -15 48 -53 75 -85 28 -31 59 -67 70
-79 11 -12 45 -51 75 -86 30 -35 70 -79 88 -98 18 -19 37 -43 43 -53 21 -40
26 -28 54 126 2 11 6 31 9 45 17 77 29 137 32 155 2 11 6 31 9 45 3 14 10 49
15 78 5 29 11 56 13 60 3 4 8 29 11 56 4 27 9 52 11 56 2 3 6 24 9 46 8 51 14
81 20 102 3 9 8 31 11 47 7 45 14 75 19 93 3 9 7 34 10 54 3 21 10 57 15 80 6
24 12 57 15 73 9 48 15 75 20 93 3 9 8 35 11 57 11 65 14 79 20 105 3 14 8 41
11 60 3 19 9 51 14 70 5 19 12 51 15 70 3 19 10 53 15 75 9 40 6 49 -30 86 -8
9 -26 29 -40 45 -42 49 -154 178 -165 190 -6 6 -35 40 -65 74 -30 35 -71 81
-91 102 -20 21 -35 38 -32 38 2 0 -6 11 -19 23 -13 13 -43 47 -68 76 -25 28
-60 68 -79 89 -18 20 -72 82 -119 137 -48 55 -100 114 -117 132 -16 18 -43 48
-60 68 -60 73 -103 115 -116 114 -8 0 -27 -5 -44 -10z"/>
</g>
</svg>
