<?xml version="1.0" encoding="UTF-8" standalone="no"?>
<!-- Created with Inkscape (http://www.inkscape.org/) -->

<svg
   width="337.66455"
   height="347.70758"
   viewBox="0 0 89.34041 91.997628"
   version="1.1"
   id="svg1"
   xml:space="preserve"
   xmlns:xlink="http://www.w3.org/1999/xlink"
   xmlns="http://www.w3.org/2000/svg"
  ><defs
     id="defs1"><linearGradient
       id="linearGradient6"><stop
         style="stop-color:#1e33f2;stop-opacity:1;"
         offset="0"
         id="stop7" /><stop
         style="stop-color:#ff6dec;stop-opacity:1;"
         offset="1"
         id="stop8" /></linearGradient><linearGradient
       xlink:href="#linearGradient6"
       id="linearGradient8"
       x1="52.916668"
       y1="6.9178972"
       x2="52.481602"
       y2="105.4301"
       gradientUnits="userSpaceOnUse"
       spreadMethod="reflect"
       gradientTransform="translate(8.2465098,6.9178974)" /></defs><g
     id="layer1"
     transform="translate(-8.2465098,-6.9178974)"><path
       style="fill:url(#linearGradient8);fill-opacity:1;stroke-width:0.750752"
       d="M 25.223821,98.239202 C 24.26487,97.32044 11.005729,72.809545 11.005729,71.955593 c 0,-1.307769 0.618025,-1.814615 5.370053,-4.404048 3.290283,-1.792911 4.645067,-2.431876 5.15768,-2.432556 1.121533,-0.0011 1.879612,0.616358 2.78875,2.272849 0.452433,0.824355 0.935197,1.498846 1.07281,1.498846 0.524535,0 1.908119,-1.225324 2.593645,-2.296983 0.911893,-1.425518 2.334815,-2.947517 3.476611,-3.718688 0.49163,-0.332046 0.924829,-0.62765 0.962675,-0.65689 0.03783,-0.0292 -0.19627,-0.439337 -0.520249,-0.911326 -0.927157,-1.350754 -2.12733,-3.878318 -2.741888,-5.774421 l -0.563334,-1.738067 h -3.729113 -3.729111 l -0.383117,0.744886 c -0.807261,1.569531 -2.291072,2.461673 -4.094275,2.461673 -2.584345,0 -4.469319,-1.884198 -4.469319,-4.467476 0,-2.670485 1.830236,-4.54048 4.461334,-4.558227 1.825609,-0.01237 3.31644,0.91593 4.161772,2.591305 l 0.325736,0.645563 h 3.498707 3.498698 l -0.125255,-1.042842 c -0.06891,-0.573563 -0.126036,-1.824972 -0.12699,-2.78091 l -0.0014,-1.738067 h -4.171364 c -3.719052,0 -4.209056,-0.0379 -4.518977,-0.349881 C 19.00862,45.107897 17.612604,42.79795 16.09755,40.167106 l -2.754643,-4.783347 -0.882415,-0.03333 c -1.015808,-0.03846 -2.275742,-0.62163 -2.9962176,-1.386904 -2.4015587,-2.550874 -1.0624495,-6.833539 2.3666706,-7.568961 4.016306,-0.861331 6.989098,3.577085 4.70527,7.025038 l -0.609306,0.919877 2.450397,4.264929 2.450394,4.26493 h 3.781176 3.781169 l 0.433033,-1.675107 c 0.642757,-2.486387 1.749778,-4.886749 3.37683,-7.322014 l 1.4507,-2.171308 V 26.292522 20.884123 L 31.42773,20.056022 c -1.222585,-0.455457 -2.28077,-0.760235 -2.351521,-0.677277 -0.07072,0.08294 -0.457673,1.099805 -0.859828,2.259683 l -0.731187,2.108849 1.31142,3.055691 c 0.872096,2.032056 1.316323,3.330417 1.326076,3.875788 0.0271,1.518432 -1.26826,2.854683 -2.767399,2.854683 -1.543981,0 -5.36274,-0.648272 -5.947434,-1.009635 -1.138387,-0.703563 -1.596353,-2.421487 -0.967133,-3.627927 0.162214,-0.311032 1.224709,-1.790036 2.361085,-3.286675 2.046189,-2.694863 2.076894,-2.751636 3.17872,-5.878982 0.611916,-1.736808 1.185437,-3.230693 1.274492,-3.31976 0.304257,-0.304244 24.96669,-9.4908211 25.483921,-9.4925623 0.560962,-0.00223 24.601968,8.9533333 25.347735,9.4419643 0.536364,0.351442 0.630671,1.476652 0.162951,1.944371 -0.161045,0.161045 -0.943174,0.537724 -1.738067,0.837063 -0.794881,0.299328 -2.160349,0.822003 -3.034344,1.161483 l -1.589094,0.617238 -0.05295,5.199365 -0.05295,5.199375 0.984987,1.301349 c 1.980355,2.616397 3.552906,5.833033 4.306632,8.809121 l 0.364729,1.440111 3.779754,-0.0033 3.779765,-0.0033 2.438508,-4.245834 2.438509,-4.245823 -0.639076,-1.02805 c -1.706854,-2.745762 -0.324141,-6.207839 2.776429,-6.951655 4.205637,-1.008921 7.341834,4.17613 4.457198,7.369067 -0.909766,1.007003 -1.964714,1.547202 -3.105787,1.590365 l -0.894706,0.03389 -2.811576,4.884463 c -1.546366,2.686459 -2.896418,4.973843 -3.000099,5.083098 -0.108129,0.113948 -2.003061,0.240983 -4.444356,0.297957 l -4.255834,0.09932 -0.09096,2.731249 -0.09096,2.731248 h 3.45724 3.457228 l 0.325736,-0.645563 c 1.390137,-2.755093 4.80923,-3.454219 7.167523,-1.465582 1.479895,1.247919 1.898522,3.633891 0.961891,5.482249 -1.665721,3.287154 -6.369788,3.261538 -8.069899,-0.04392 l -0.383122,-0.744886 h -1.386414 c -0.762532,0 -1.386425,0.04013 -1.386425,0.08907 0,0.04905 0.232656,0.339503 0.517024,0.645575 1.196987,1.288351 1.687603,3.073515 1.272611,4.630583 -1.081736,4.058827 -8.637107,14.430345 -15.127944,20.766691 -2.795323,2.728785 -4.678648,4.212671 -6.414047,5.053669 -2.371313,1.149166 -6.735876,1.273246 -13.365843,0.379979 -2.988812,-0.402697 -3.642649,-0.433207 -5.164543,-0.241028 -0.958372,0.121027 -2.278816,0.407892 -2.934313,0.637493 -1.303365,0.456516 -3.660374,1.96924 -4.263993,2.73661 -0.380864,0.484195 -0.380699,0.485098 0.328544,1.842874 0.825865,1.581046 0.801841,2.414085 -0.09759,3.383077 -0.294579,0.317364 -2.457406,1.609472 -4.806283,2.871348 -4.941245,2.654555 -5.455751,2.782347 -6.638733,1.648944 z m 7.085663,-5.022178 c 1.174438,-0.634003 2.13534,-1.21781 2.13534,-1.297358 0,-0.21735 -12.898735,-23.922852 -13.016993,-23.922852 -0.260173,0 -7.435754,3.992422 -7.438941,4.138953 -0.0029,0.132654 9.337217,17.453419 12.258798,22.733356 l 0.690685,1.248221 1.617884,-0.873782 c 0.889837,-0.480583 2.578788,-1.392523 3.753227,-2.026538 z m 6.008755,-9.414654 c 0.873995,-0.425594 2.214793,-0.931526 2.979546,-1.124296 1.899312,-0.478766 5.490023,-0.469369 8.44205,0.02207 1.688486,0.281102 3.294637,0.381952 6.157726,0.386645 3.799225,0.0056 3.895321,-0.0033 5.017563,-0.529821 1.676174,-0.785495 3.313953,-2.103097 6.106077,-4.912377 5.035376,-5.066321 10.93468,-12.742986 13.24913,-17.240884 0.910992,-1.770427 1.031495,-2.511947 0.557244,-3.429059 -0.43226,-0.835881 -1.059898,-1.194613 -2.08136,-1.189597 -1.117441,0.0056 -1.320868,0.171279 -3.284724,2.677173 -2.997179,3.824399 -7.204198,7.671003 -11.618472,10.623102 -0.710122,0.474909 -1.637654,1.171683 -2.061175,1.548418 -1.659419,1.476038 -4.657922,2.400452 -7.870644,2.426447 -2.665425,0.02151 -5.375214,0.369467 -6.276597,0.805817 -0.496157,0.24018 -1.016623,0.695503 -1.253035,1.096194 -0.515946,0.874462 -1.136727,1.173032 -1.864018,0.896511 -0.835782,-0.317754 -1.073216,-1.035908 -0.651601,-1.97089 0.728642,-1.615836 2.190004,-2.692232 4.200472,-3.093937 0.756503,-0.151146 2.716253,-0.33336 4.355001,-0.404915 4.268978,-0.186383 6.182862,-0.65544 7.577948,-1.857176 0.79691,-0.686463 1.742226,-5.243318 1.3839,-6.671022 -0.168567,-0.671603 -0.683515,-0.671414 -2.108887,7.47e-4 -6.287344,2.964996 -11.607316,3.60464 -18.697672,2.248124 -4.510676,-0.862992 -7.478953,0.106568 -9.608025,3.138203 -1.108815,1.578895 -2.752594,3.299215 -3.576274,3.742789 -0.381923,0.205679 -0.694408,0.459069 -0.694408,0.563107 0,0.159696 5.538994,10.486235 7.389125,13.775808 l 0.587508,1.044615 1.027254,-0.899031 c 0.564993,-0.494462 1.742345,-1.247229 2.616348,-1.672822 z m 26.497989,-18.770374 0.653133,-0.481854 -0.59296,-0.306629 c -0.567578,-0.293509 -0.598,-0.287768 -0.71113,0.134247 -0.126329,0.47123 -0.163131,1.136101 -0.06292,1.136101 0.03341,0 0.35464,-0.216838 0.713851,-0.481865 z m 4.933891,-4.33508 c 3.049415,-3.085153 3.51068,-3.721609 4.193799,-5.786605 0.329548,-0.99618 0.697699,-2.436937 0.818135,-3.201687 0.120424,-0.76475 0.258183,-1.63627 0.306127,-1.936701 l 0.08717,-0.546252 h -4.632601 -4.632613 l -0.125284,2.234658 c -0.135228,2.411632 -0.522207,4.894284 -1.148843,7.370482 -0.217183,0.858198 -0.368221,1.636682 -0.335646,1.729952 0.05323,0.152361 3.080238,2.096788 3.347361,2.150194 0.06042,0.01204 1.015543,-0.894226 2.122382,-2.014041 z m -19.155606,1.116738 c 0.822186,-0.112688 0.93305,-0.185558 0.93305,-0.613269 0,-0.42187 -0.07148,-0.471989 -0.546255,-0.383044 -0.300435,0.05629 -0.993178,0.158905 -1.539432,0.228074 -1.389427,0.175916 -3.338544,0.684935 -3.575459,0.933743 -0.202072,0.212223 2.718038,0.110025 4.728096,-0.165504 z m -9.191375,-0.99366 c 0.166982,-0.166976 0.09589,-0.752645 -0.277275,-2.284319 -0.555084,-2.278344 -1.117735,-6.029271 -1.121932,-7.479448 -0.0014,-0.515173 -0.05661,-1.137817 -0.122484,-1.383627 l -0.119776,-0.446929 h -4.545464 c -2.500011,0 -4.545111,0.06699 -4.544677,0.148984 4.44e-4,0.08193 0.131616,0.95547 0.291495,1.941204 0.500579,3.086302 1.697556,6.158524 3.396199,8.716856 l 0.675526,1.017415 3.07192,-0.0033 c 2.015843,-0.0011 3.149111,-0.08004 3.296468,-0.227338 z m 7.430408,-2.473668 c 0.771582,-0.113702 1.693384,-0.249911 2.048445,-0.302694 l 0.645572,-0.09598 v -4.361008 -4.360997 h -4.483621 -4.48361 l 0.107683,1.042842 c 0.05924,0.573563 0.161268,1.668541 0.226779,2.433303 0.12223,1.426968 0.743725,4.809286 1.115767,6.072255 l 0.208882,0.709081 1.605618,-0.465055 c 0.883087,-0.255775 2.23691,-0.558079 3.008487,-0.671771 z m 13.301436,-0.97656 c 0.505752,-2.256919 0.696886,-3.519431 0.818928,-5.409246 0.06539,-1.012544 0.159813,-2.04211 0.209828,-2.28792 l 0.09094,-0.446929 h -4.473104 -4.473106 v 4.360997 4.361008 l 0.645571,0.09297 c 0.355061,0.05117 1.360656,0.222255 2.234658,0.380313 0.874003,0.158057 2.279365,0.27671 3.123023,0.263678 l 1.533938,-0.02374 z m -44.18691,-3.681535 c 0.742444,-0.730762 0.670893,-1.766002 -0.174245,-2.521132 -0.539902,-0.482412 -0.774472,-0.567845 -1.281205,-0.466616 -1.405114,0.280678 -2.088347,1.928185 -1.206279,2.908758 0.805851,0.895843 1.801783,0.925395 2.661729,0.07904 z m 72.462571,0.05674 c 0.324721,-0.303107 0.446929,-0.642665 0.446929,-1.241789 0,-1.869126 -2.43736,-2.518524 -3.286864,-0.875744 -0.517893,1.001486 -0.214641,1.954414 0.780658,2.453011 0.726972,0.364172 1.43292,0.249165 2.059277,-0.335478 z M 39.881845,45.799209 c 0.05052,-0.355075 0.186457,-1.72041 0.302094,-3.03411 0.115639,-1.313689 0.354491,-3.085989 0.530782,-3.938458 0.176292,-0.852468 0.282974,-1.587489 0.237064,-1.633405 -0.04587,-0.04593 -0.791314,-0.263868 -1.656465,-0.484351 -0.865144,-0.220493 -2.234133,-0.71413 -3.042189,-1.096973 -0.808065,-0.382855 -1.492705,-0.671938 -1.521429,-0.64242 -0.02875,0.02954 -0.463995,0.72229 -0.967276,1.539477 -1.471309,2.389015 -2.611543,5.788634 -2.982692,8.892961 l -0.124685,1.042842 h 4.566478 4.566479 z m 11.645718,-3.594006 v -4.239558 l -3.128529,-0.128952 c -1.720685,-0.0709 -3.450695,-0.183886 -3.844465,-0.251049 -0.708762,-0.12087 -0.718109,-0.113424 -0.931586,0.743403 -0.263236,1.056498 -0.769482,4.715571 -0.923597,6.675604 l -0.113244,1.440121 h 4.470705 4.470716 z m 11.544516,2.749798 c -0.0509,-1.524396 -0.467651,-4.754698 -0.829394,-6.429304 l -0.230293,-1.066118 -0.822756,0.119254 c -0.452516,0.06566 -2.185899,0.17945 -3.85196,0.253011 L 54.308468,37.9656 v 4.243382 4.243382 l 4.405036,-0.0534 4.405032,-0.05351 z m 11.925539,1.3926 c 0.145885,-0.145896 -0.173441,-2.528724 -0.540968,-4.036666 -0.526744,-2.161185 -2.134332,-5.682455 -3.317508,-7.266634 -0.272385,-0.364717 -0.304534,-0.360036 -1.057279,0.153766 -0.783154,0.534559 -4.119423,1.71215 -4.850765,1.71215 -0.481263,0 -0.481419,-0.148293 0.0033,2.684407 0.218766,1.279645 0.449716,3.232677 0.513222,4.340085 0.06354,1.107408 0.149876,2.125202 0.191924,2.261768 0.05819,0.188947 1.138141,0.248295 4.518899,0.248295 2.443346,0 4.486181,-0.0437 4.539621,-0.0972 z M 57.387331,35.037412 c 4.262554,-0.146074 9.193997,-0.867272 10.951494,-1.601601 l 0.668738,-0.279419 v -5.59321 c 0,-4.391173 -0.0534,-5.573435 -0.248295,-5.501256 -0.136555,0.05061 -3.740727,1.400917 -8.009273,3.00079 -4.268537,1.599874 -7.865005,2.908859 -7.992152,2.908859 -0.127148,0 -3.809297,-1.340788 -8.18256,-2.979544 -4.373258,-1.638744 -7.996161,-2.979543 -8.050883,-2.979543 -0.05473,0 -0.07574,2.475495 -0.0467,5.501122 l 0.05278,5.501133 0.603943,0.352623 c 1.304694,0.761752 6.575805,1.529245 11.910153,1.734132 1.966499,0.07558 4.022388,0.113446 4.568635,0.08427 0.546255,-0.02921 2.24459,-0.09598 3.774089,-0.148349 z m -43.908255,-2.5797 c 1.182468,-0.494072 1.480167,-1.839463 0.626599,-2.831797 -0.380114,-0.441902 -0.643367,-0.552807 -1.312218,-0.552807 -1.949547,0 -2.511351,2.60097 -0.729246,3.376176 0.780677,0.339592 0.624504,0.338667 1.414865,0.0089 z m 80.249108,0 c 1.468169,-0.613437 1.519324,-2.465653 0.08851,-3.205545 -1.560791,-0.807121 -3.191722,0.945471 -2.347602,2.522727 0.117849,0.220204 0.497739,0.523679 0.844208,0.67439 0.780669,0.339592 0.624495,0.338667 1.414851,0.0089 z M 26.770948,29.11374 c -0.388598,-0.901316 -0.785235,-1.839876 -0.881414,-2.085685 -0.09619,-0.245821 -0.217763,-0.446929 -0.270188,-0.446929 -0.153994,0 -2.47748,3.111238 -2.539501,3.400488 -0.04077,0.190252 0.415271,0.327352 1.631798,0.490582 0.928627,0.124605 1.930829,0.238642 2.227128,0.253424 l 0.538709,0.02687 z M 73.061039,17.429325 c 0.05607,-0.05607 -4.485992,-1.826354 -10.093465,-3.933966 L 52.772174,9.6633466 44.70502,12.696866 c -4.436936,1.668429 -8.046611,3.048489 -8.021514,3.066804 0.02507,0.01828 3.603549,-0.05808 7.952099,-0.169918 7.866516,-0.20219 7.90855,-0.201142 8.317905,0.208221 0.530662,0.530656 0.525242,1.368054 -0.01231,1.905633 -0.411772,0.411771 -0.656796,0.42964 -8.653725,0.631016 -4.526478,0.113993 -8.279194,0.256489 -8.339373,0.316673 -0.06021,0.0602 3.705178,1.539857 8.367444,3.288191 l 8.476863,3.178768 10.083357,-3.795493 c 5.545846,-2.087525 10.129232,-3.841365 10.185303,-3.897436 z"
       id="path1" /></g></svg>
