<?xml version="1.0" encoding="UTF-8" standalone="no"?>
<!-- Created with Inkscape (http://www.inkscape.org/) -->

<svg
   width="95.808197"
   height="93.493736"
   viewBox="0 0 25.349252 24.736884"
   version="1.1"
   id="svg1"
   xml:space="preserve"
   xmlns="http://www.w3.org/2000/svg"
   xmlns:svg="http://www.w3.org/2000/svg"><defs
     id="defs1" /><g
     id="layer1"
     transform="translate(-0.55454779,-0.86072386)"><path
       style="fill:#7e7e7e;fill-opacity:1;stroke-width:0.194799"
       d="M 0.65326345,25.494524 C 0.52943154,25.370693 0.52242968,25.247841 0.63041785,25.09367 0.70974939,24.980402 0.72531618,24.97912 2.0220117,24.97912 h 1.3113614 v -2.499716 -2.499716 h 1.4431354 1.4431353 v 2.499716 2.499716 h 1.3658241 1.3658247 v -4.509796 -4.509798 h 1.4428524 1.442852 l 0.01317,4.496912 0.01317,4.496913 h 1.365825 1.365824 l 0.01328,-3.234985 0.01328,-3.234983 1.429862,0.01371 1.429863,0.01371 0.01328,3.234169 0.01328,3.234169 h 1.365437 1.365436 V 19.438518 13.89791 h 1.443136 1.443135 v 5.540608 5.540609 h 1.311362 c 1.296696,0 1.312257,0.0014 1.391593,0.114549 0.107987,0.154172 0.10099,0.277024 -0.02285,0.400855 -0.102512,0.102512 -0.171801,0.103079 -12.575892,0.103079 -12.40409047,0 -12.47337964,-5.85e-4 -12.5758924,-0.103079 z M 4.2029084,17.174403 C 3.7616701,17.006268 3.4761229,16.741768 3.2252117,16.268769 c -0.1745788,-0.329103 -0.1784774,-1.04865 -0.00753,-1.395488 0.1887105,-0.38295 0.450685,-0.646964 0.8246401,-0.83106 0.2999478,-0.147665 0.3934965,-0.168842 0.7332965,-0.166003 0.3186228,0.0026 0.4455701,0.03016 0.6977236,0.151165 0.1695296,0.08136 0.3226193,0.14928 0.3401986,0.150953 0.046089,0.0044 3.1377803,-2.803456 3.1377803,-2.849701 0,-0.02127 -0.022238,-0.06092 -0.049425,-0.0881 C 8.7974565,11.1361 8.6833121,10.535179 8.7168791,10.266515 8.8865602,8.9084364 10.519869,8.2850287 11.529664,9.1929212 c 0.365154,0.3283059 0.524946,0.6618006 0.554694,1.1576878 0.01305,0.217553 -4.28e-4,0.46485 -0.02995,0.549548 l -0.05368,0.153997 1.386168,0.83553 1.386167,0.835531 0.191832,-0.168431 c 0.327789,-0.287802 0.603582,-0.384411 1.099027,-0.38498 0.377593,-4.28e-4 0.476076,0.01909 0.713115,0.141332 l 0.27502,0.141836 0.168992,-0.141836 c 0.09294,-0.07801 0.81027,-0.744673 1.594054,-1.481475 C 19.83858,9.8695215 20.230459,9.4701155 20.20575,9.4142917 19.920419,8.7696653 19.916437,8.280303 20.192307,7.7627115 20.503384,7.179071 21.021995,6.8670702 21.68429,6.8651218 22.021045,6.86415 22.11942,6.88668 22.41658,7.03297 c 0.373396,0.1838225 0.635492,0.4480458 0.824105,0.8307958 0.09467,0.1921168 0.116123,0.3218046 0.115736,0.6996922 -4.08e-4,0.4067318 -0.01809,0.4974105 -0.143501,0.7362235 -0.175833,0.3348268 -0.479349,0.636199 -0.799585,0.7939365 -0.201304,0.09915 -0.323994,0.119138 -0.731506,0.119138 -0.428993,0 -0.522469,-0.01695 -0.754739,-0.136855 L 20.661985,9.9390447 19.148941,11.356195 c -0.832175,0.779432 -1.545528,1.448361 -1.585231,1.48651 -0.06172,0.05931 -0.05469,0.109067 0.04847,0.343232 0.09046,0.205356 0.121254,0.371194 0.123048,0.662888 0.0021,0.338178 -0.01969,0.433875 -0.166599,0.732289 -0.183822,0.373398 -0.448045,0.635492 -0.830796,0.824105 -0.356218,0.175539 -1.005648,0.16608 -1.403497,-0.02044 -0.344758,-0.161628 -0.661488,-0.471323 -0.825243,-0.80691 -0.133914,-0.274432 -0.1876,-0.856165 -0.106214,-1.150921 l 0.05008,-0.181374 -1.375486,-0.82543 -1.375487,-0.825429 -0.202788,0.172163 c -0.327525,0.278064 -0.695252,0.392408 -1.182696,0.367757 -0.331899,-0.01679 -0.4662459,-0.04988 -0.6844044,-0.168622 L 9.3606563,11.818276 9.1688716,11.999465 c -0.1054817,0.09965 -0.8108283,0.741683 -1.5674362,1.426731 l -1.3756513,1.245542 0.1121369,0.244455 c 0.1683116,0.366913 0.1593289,0.972122 -0.020076,1.352577 -0.1616287,0.342759 -0.4824266,0.673201 -0.8097026,0.834045 -0.2972137,0.146069 -1.0075116,0.185029 -1.3052098,0.0716 z M 4.0807099,8.1441333 C 3.8822788,8.102386 3.5111865,7.9669523 3.256061,7.8431731 2.2970416,7.3778851 1.6424089,6.6033847 1.3163939,5.5483361 1.1445903,4.9923458 1.1440251,4.0862651 1.3151791,3.538255 1.5252962,2.8653377 1.761938,2.4760952 2.2741628,1.9608627 2.6716996,1.5609911 2.8131059,1.4564043 3.2303298,1.2536584 3.6827067,1.0338312 4.4247924,0.82579056 4.5283183,0.88977361 4.551456,0.90407579 4.5703811,1.7620809 4.5703811,2.7964591 V 4.6771463 L 5.6178395,6.1306671 C 6.1939411,6.9301034 6.6826044,7.6135607 6.7037559,7.649461 6.7597644,7.7445249 6.0776959,8.0502016 5.5904798,8.1483865 5.1041504,8.2463927 4.5594859,8.244858 4.0807456,8.1440944 Z M 12.594792,7.247747 12.456049,7.1386113 V 6.0714686 c 0,-0.8824303 0.01388,-1.0869692 0.08023,-1.1816915 0.07964,-0.113699 0.09086,-0.1145486 1.512457,-0.1145486 1.32206,0 1.438786,0.00728 1.517523,0.094254 0.07366,0.0814 0.0853,0.2417236 0.0853,1.1755811 0,0.85205 -0.0155,1.1025409 -0.0731,1.1813748 -0.06872,0.09405 -0.156154,0.1009569 -1.459014,0.115246 -1.345301,0.014755 -1.389987,0.012002 -1.524664,-0.093937 z M 6.606196,6.4382469 C 6.2660283,5.9653941 5.8759615,5.4209684 5.7393794,5.2284119 L 5.4910492,4.8783091 H 7.0156173 8.5401845 L 8.5078398,5.0973562 C 8.4591681,5.4270082 8.2493749,6.0304785 8.0776936,6.3346813 7.8867276,6.6730535 7.3725187,7.3011738 7.2879722,7.2993467 7.2531652,7.2985871 6.9463614,6.9110997 6.6061936,6.4382469 Z m 9.944238,0.4268967 c -0.100329,-0.153127 -0.0606,-0.3103235 0.106064,-0.4195191 0.100109,-0.065589 0.28212,-0.076449 1.056925,-0.063054 0.856582,0.014812 0.942195,0.024676 1.009054,0.1162298 0.100297,0.1373546 0.09155,0.3053268 -0.02119,0.4073708 -0.0808,0.073121 -0.235162,0.085299 -1.081163,0.085299 H 16.63321 Z m 0.05588,-1.2322011 c -0.05964,-0.043618 -0.09575,-0.133818 -0.09575,-0.2392277 0,-0.3118945 -0.01924,-0.3092431 2.243274,-0.3092431 1.98305,0 2.055224,0.00348 2.154853,0.103081 0.05669,0.056697 0.103079,0.1494682 0.103079,0.2061627 0,0.056697 -0.04639,0.1494674 -0.103079,0.2061619 -0.09963,0.099629 -0.171803,0.103081 -2.154853,0.103081 -1.647428,0 -2.07064,-0.013799 -2.147522,-0.070018 z M 5.1888314,2.5345034 V 0.86072385 L 5.356338,0.88992641 C 6.5705104,1.1016186 7.4983444,1.740159 8.0893561,2.7708063 8.2459347,3.043857 8.4604929,3.6685458 8.5078419,3.9892321 l 0.032345,0.2190472 H 6.8645099 5.1888338 Z m 7.3474506,1.1984461 c -0.06636,-0.094743 -0.0801,-0.2974851 -0.07944,-1.1725475 4.28e-4,-0.5818994 0.01782,-1.0835177 0.03865,-1.1147078 0.103761,-0.1553922 0.285567,-0.1752228 1.606465,-0.1752228 1.274722,0 1.348716,0.00527 1.446523,0.1030811 0.09665,0.096642 0.103079,0.171801 0.103079,1.2032145 0,1.0003349 -0.0085,1.1078712 -0.09425,1.185432 -0.08292,0.07504 -0.265485,0.085299 -1.517523,0.085299 -1.412339,0 -1.423886,-8.909e-4 -1.503503,-0.1145487 z M 16.58213,3.4013053 C 16.465188,3.252639 16.479575,3.094673 16.62012,2.9841947 c 0.05891,-0.046307 0.352315,-0.064423 1.043389,-0.064423 0.865963,0 0.969901,0.00936 1.04673,0.094254 0.114693,0.1267351 0.107554,0.2958152 -0.01779,0.4211517 -0.09563,0.095621 -0.171801,0.10308 -1.05284,0.10308 H 16.68985 Z M 16.694839,2.1964404 C 16.511467,2.122753 16.443097,1.9214024 16.547398,1.7622177 l 0.08582,-0.1309624 h 2.110785 2.110786 l 0.08582,0.1309624 c 0.107862,0.1646196 0.03407,0.3619169 -0.163467,0.4370183 -0.168605,0.064107 -3.922198,0.061531 -4.082284,-0.00283 z"
       id="path5" /></g></svg>
