<svg id="Component_1_1" data-name="Component 1 – 1" xmlns="http://www.w3.org/2000/svg" width="186.001" height="56.832" viewBox="0 0 186.001 56.832">
  <path id="Path_27" data-name="Path 27" d="M754.5,160.3a17.059,17.059,0,0,0-4.527-6.225,14.3,14.3,0,0,0,2.91-5.416,26.157,26.157,0,0,0,.727-6.71c0-4.527-1.455-8-4.688-10.428q-4.73-3.638-13.582-3.638H715.7l-.081,30.72c2.587-.081,19.049-.057,23.9-.158,2.944-.061,8.366,2.478,8.356,9.534,0,3.477-.97,6.063-2.991,7.842-1.94,1.617-5.012,2.506-9.135,2.506H723.377v-5.873H737.6a3.854,3.854,0,1,0,0-7.708H715.7v19.968h20.371c6.387,0,11.318-1.374,14.713-4.123,3.477-2.829,5.174-6.79,5.174-11.8A21.077,21.077,0,0,0,754.5,160.3Zm-11.4-11.075c-1.778,1.374-4.607,2.1-8.326,2.1h-11.4V134.189h11.4c3.719,0,6.548.647,8.326,2.1,1.94,1.455,2.83,3.557,2.83,6.467S745.042,147.771,743.1,149.226Zm-2.6-6.468h0a3.6,3.6,0,0,1-3.6,3.6h-8.325v-7.206H736.9A3.6,3.6,0,0,1,740.5,142.759Z" transform="translate(-715.616 -127.884)" fill="$primary-color"/>
  <g id="Group_3" data-name="Group 3" transform="translate(49.992 6.975)">
    <g id="Group_2" data-name="Group 2" transform="translate(0 34.046)">
      <path id="Path_7" data-name="Path 7" d="M789.76,192.811a3.1,3.1,0,0,1-1.161,2.216,4.233,4.233,0,0,1-2.691.8,4.137,4.137,0,0,1-2.068-.5,3.427,3.427,0,0,1-1.379-1.429,4.744,4.744,0,0,1-.506-2.153v-.829a4.783,4.783,0,0,1,.492-2.214,3.486,3.486,0,0,1,1.414-1.475,4.263,4.263,0,0,1,2.128-.518,4.056,4.056,0,0,1,2.617.8,3.2,3.2,0,0,1,1.154,2.254h-1.7a2.093,2.093,0,0,0-.618-1.381,2.18,2.18,0,0,0-1.453-.424,2.074,2.074,0,0,0-1.71.736,3.408,3.408,0,0,0-.61,2.157v.788a3.6,3.6,0,0,0,.57,2.2,1.96,1.96,0,0,0,1.67.757,2.37,2.37,0,0,0,1.511-.408,2.045,2.045,0,0,0,.641-1.359Z" transform="translate(-781.955 -186.336)" fill="#53545a"/>
      <path id="Path_8" data-name="Path 8" d="M793.267,192.971a3.587,3.587,0,0,1,.425-1.747,2.933,2.933,0,0,1,1.194-1.195,3.645,3.645,0,0,1,1.767-.418,3.375,3.375,0,0,1,2.4.86,3.217,3.217,0,0,1,.995,2.28l.006.348a3.607,3.607,0,0,1-.414,1.743,2.9,2.9,0,0,1-1.187,1.189,3.669,3.669,0,0,1-1.784.42,3.2,3.2,0,0,1-3.4-3.408Zm1.639.129a2.473,2.473,0,0,0,.465,1.595,1.573,1.573,0,0,0,1.3.576,1.552,1.552,0,0,0,1.291-.585,2.723,2.723,0,0,0,.462-1.714,2.442,2.442,0,0,0-.475-1.585,1.576,1.576,0,0,0-1.292-.585,1.558,1.558,0,0,0-1.274.577A2.67,2.67,0,0,0,794.906,193.1Z" transform="translate(-784.403 -186.966)" fill="#53545a"/>
      <path id="Path_9" data-name="Path 9" d="M805.211,189.733l.047.762a2.746,2.746,0,0,1,2.125-.884,2.09,2.09,0,0,1,2.32,2.359v4.36h-1.639v-4.274a1.27,1.27,0,0,0-.3-.929,1.342,1.342,0,0,0-.981-.3,1.607,1.607,0,0,0-1.478.81v4.7h-1.639v-6.6Z" transform="translate(-786.654 -186.966)" fill="#53545a"/>
      <path id="Path_10" data-name="Path 10" d="M817.5,194.538a.657.657,0,0,0-.361-.6,4.1,4.1,0,0,0-1.2-.366,6.674,6.674,0,0,1-1.4-.4,1.631,1.631,0,0,1-.431-2.982,3.376,3.376,0,0,1,2.023-.573,3.518,3.518,0,0,1,2.115.585,1.8,1.8,0,0,1,.806,1.519H817.42a.88.88,0,0,0-.351-.711,1.437,1.437,0,0,0-.931-.284,1.564,1.564,0,0,0-.88.226.693.693,0,0,0-.341.6.588.588,0,0,0,.317.531,4.69,4.69,0,0,0,1.282.382,6.537,6.537,0,0,1,1.515.457,2.091,2.091,0,0,1,.816.637,1.508,1.508,0,0,1,.266.9,1.672,1.672,0,0,1-.816,1.442,3.746,3.746,0,0,1-2.138.552,4.121,4.121,0,0,1-1.6-.292,2.594,2.594,0,0,1-1.093-.8,1.783,1.783,0,0,1-.391-1.1h1.591a1.011,1.011,0,0,0,.439.808,1.829,1.829,0,0,0,1.073.284,1.79,1.79,0,0,0,.985-.223A.673.673,0,0,0,817.5,194.538Z" transform="translate(-789.282 -186.966)" fill="#53545a"/>
      <path id="Path_11" data-name="Path 11" d="M824.438,187.721v1.6h1.288v1.1h-1.288V194.1a.753.753,0,0,0,.165.545.816.816,0,0,0,.59.168,2.76,2.76,0,0,0,.573-.06V195.9a4.443,4.443,0,0,1-1.079.139,1.667,1.667,0,0,1-1.888-1.884v-3.738h-1.2v-1.1h1.2v-1.6Z" transform="translate(-791.279 -186.557)" fill="#53545a"/>
      <path id="Path_12" data-name="Path 12" d="M832.285,191.087a4.543,4.543,0,0,0-.668-.049,1.534,1.534,0,0,0-1.518.78v4.512H828.46v-6.6h1.565l.04.738a1.893,1.893,0,0,1,1.646-.86,1.675,1.675,0,0,1,.58.085Z" transform="translate(-792.89 -186.966)" fill="#53545a"/>
      <path id="Path_13" data-name="Path 13" d="M838.7,196.331a2.129,2.129,0,0,1-.189-.616,2.688,2.688,0,0,1-1.916.737,2.749,2.749,0,0,1-1.794-.567,1.744,1.744,0,0,1-.694-1.4,1.817,1.817,0,0,1,.867-1.619,4.544,4.544,0,0,1,2.479-.564h1v-.433a1.093,1.093,0,0,0-.316-.82,1.34,1.34,0,0,0-.965-.307,1.551,1.551,0,0,0-.917.252.762.762,0,0,0-.357.643h-1.639a1.547,1.547,0,0,1,.4-1.015,2.643,2.643,0,0,1,1.082-.741,4.163,4.163,0,0,1,1.528-.268,3.288,3.288,0,0,1,2.044.582,1.993,1.993,0,0,1,.782,1.637v2.976a3.09,3.09,0,0,0,.277,1.421v.1Zm-1.8-1.067a2.017,2.017,0,0,0,.914-.213,1.506,1.506,0,0,0,.644-.574v-1.244h-.883a2.621,2.621,0,0,0-1.37.287.9.9,0,0,0-.458.811.827.827,0,0,0,.313.679A1.3,1.3,0,0,0,836.9,195.264Z" transform="translate(-794.236 -186.966)" fill="#53545a"/>
      <path id="Path_14" data-name="Path 14" d="M846.856,195.27a1.583,1.583,0,0,0,1.019-.323,1.07,1.07,0,0,0,.432-.8h1.544a2.045,2.045,0,0,1-.425,1.149,2.732,2.732,0,0,1-1.079.845,3.509,3.509,0,0,1-1.471.31,3.284,3.284,0,0,1-2.428-.9,3.342,3.342,0,0,1-.9-2.475v-.153a3.29,3.29,0,0,1,.89-2.412,3.253,3.253,0,0,1,2.428-.905,3.2,3.2,0,0,1,2.122.686,2.354,2.354,0,0,1,.86,1.8h-1.544a1.294,1.294,0,0,0-.429-.933,1.458,1.458,0,0,0-1.022-.366,1.5,1.5,0,0,0-1.228.522,2.464,2.464,0,0,0-.438,1.582v.237a2.51,2.51,0,0,0,.428,1.6A1.5,1.5,0,0,0,846.856,195.27Z" transform="translate(-796.46 -186.966)" fill="#53545a"/>
      <path id="Path_15" data-name="Path 15" d="M855.008,187.721v1.6H856.3v1.1h-1.289V194.1a.753.753,0,0,0,.165.545.819.819,0,0,0,.591.168,2.769,2.769,0,0,0,.573-.06V195.9a4.443,4.443,0,0,1-1.079.139,1.667,1.667,0,0,1-1.889-1.884v-3.738h-1.2v-1.1h1.2v-1.6Z" transform="translate(-798.468 -186.557)" fill="#53545a"/>
      <path id="Path_16" data-name="Path 16" d="M859.038,187.362a.749.749,0,0,1,.239-.567.961.961,0,0,1,.685-.226.972.972,0,0,1,.688.226.741.741,0,0,1,.243.567.724.724,0,0,1-.243.558.982.982,0,0,1-.688.223.971.971,0,0,1-.685-.223A.732.732,0,0,1,859.038,187.362Zm1.74,8.311h-1.639v-6.6h1.639Z" transform="translate(-800.06 -186.307)" fill="#53545a"/>
      <path id="Path_17" data-name="Path 17" d="M863.144,192.971a3.579,3.579,0,0,1,.426-1.747,2.925,2.925,0,0,1,1.193-1.195,3.647,3.647,0,0,1,1.768-.418,3.372,3.372,0,0,1,2.4.86,3.214,3.214,0,0,1,1,2.28l.007.348a3.606,3.606,0,0,1-.416,1.743,2.893,2.893,0,0,1-1.187,1.189,3.67,3.67,0,0,1-1.784.42,3.2,3.2,0,0,1-3.4-3.408Zm1.639.129a2.473,2.473,0,0,0,.465,1.595,1.573,1.573,0,0,0,1.3.576,1.553,1.553,0,0,0,1.292-.585,2.721,2.721,0,0,0,.462-1.714,2.44,2.44,0,0,0-.476-1.585,1.707,1.707,0,0,0-2.566-.009A2.671,2.671,0,0,0,864.783,193.1Z" transform="translate(-801.08 -186.966)" fill="#53545a"/>
      <path id="Path_18" data-name="Path 18" d="M875.088,189.733l.047.762a2.746,2.746,0,0,1,2.125-.884,2.091,2.091,0,0,1,2.321,2.359v4.36h-1.639v-4.274a1.267,1.267,0,0,0-.3-.929,1.343,1.343,0,0,0-.981-.3,1.605,1.605,0,0,0-1.477.81v4.7h-1.639v-6.6Z" transform="translate(-803.52 -186.966)" fill="#53545a"/>
      <path id="Path_19" data-name="Path 19" d="M894.36,188.1H891.3v7.634H889.6V188.1h-3.035v-1.244h7.791Z" transform="translate(-806.613 -186.37)" fill="#53545a"/>
      <path id="Path_20" data-name="Path 20" d="M900.324,196.453a3.593,3.593,0,0,1-2.526-.887,3.05,3.05,0,0,1-.968-2.362v-.183a3.643,3.643,0,0,1,.422-1.765,3.021,3.021,0,0,1,1.184-1.211,3.38,3.38,0,0,1,1.7-.433,3.019,3.019,0,0,1,2.3.86,3.4,3.4,0,0,1,.813,2.433v.6h-4.769a1.9,1.9,0,0,0,.6,1.293,1.92,1.92,0,0,0,1.333.476,2.308,2.308,0,0,0,1.834-.823l.884.762a2.885,2.885,0,0,1-1.17.918A3.993,3.993,0,0,1,900.324,196.453Zm-.2-5.652a1.449,1.449,0,0,0-1.088.427,2.093,2.093,0,0,0-.53,1.189h3.122v-.11a1.7,1.7,0,0,0-.438-1.125A1.453,1.453,0,0,0,900.128,190.8Z" transform="translate(-809.009 -186.966)" fill="#53545a"/>
      <path id="Path_21" data-name="Path 21" d="M908.188,189.733l.047.69a2.763,2.763,0,0,1,2.1-.811,2.062,2.062,0,0,1,2,1.012,2.685,2.685,0,0,1,2.239-1.012,2.414,2.414,0,0,1,1.8.6,2.49,2.49,0,0,1,.6,1.78v4.335h-1.639v-4.292a1.231,1.231,0,0,0-.3-.921,1.419,1.419,0,0,0-1.005-.292,1.462,1.462,0,0,0-.914.271,1.425,1.425,0,0,0-.5.71l.007,4.524H911V191.99q-.034-1.165-1.316-1.164a1.473,1.473,0,0,0-1.4.725v4.781h-1.639v-6.6Z" transform="translate(-811.392 -186.966)" fill="#53545a"/>
      <path id="Path_22" data-name="Path 22" d="M928.38,193.1a3.662,3.662,0,0,1-.77,2.442,2.561,2.561,0,0,1-2.065.911,2.614,2.614,0,0,1-1.922-.713v3.128h-1.639v-9.134H923.5l.067.671a2.523,2.523,0,0,1,1.963-.792,2.592,2.592,0,0,1,2.094.9,3.753,3.753,0,0,1,.759,2.5Zm-1.633-.129a2.551,2.551,0,0,0-.435-1.566,1.463,1.463,0,0,0-1.244-.579,1.539,1.539,0,0,0-1.444.75V194.5a1.553,1.553,0,0,0,1.456.768,1.46,1.46,0,0,0,1.225-.57A2.8,2.8,0,0,0,926.747,192.971Z" transform="translate(-814.932 -186.966)" fill="#53545a"/>
      <path id="Path_23" data-name="Path 23" d="M933.688,195.6h-1.639v-9.365h1.639Z" transform="translate(-817.674 -186.235)" fill="#53545a"/>
      <path id="Path_24" data-name="Path 24" d="M940.714,196.331a2.117,2.117,0,0,1-.189-.616,2.688,2.688,0,0,1-1.916.737,2.747,2.747,0,0,1-1.794-.567,1.744,1.744,0,0,1-.7-1.4,1.819,1.819,0,0,1,.867-1.619,4.55,4.55,0,0,1,2.48-.564h1v-.433a1.09,1.09,0,0,0-.317-.82,1.339,1.339,0,0,0-.964-.307,1.557,1.557,0,0,0-.918.252.762.762,0,0,0-.357.643h-1.639a1.551,1.551,0,0,1,.4-1.015,2.647,2.647,0,0,1,1.083-.741,4.164,4.164,0,0,1,1.528-.268,3.283,3.283,0,0,1,2.043.582,1.991,1.991,0,0,1,.783,1.637v2.976a3.1,3.1,0,0,0,.277,1.421v.1Zm-1.8-1.067a2.015,2.015,0,0,0,.914-.213,1.512,1.512,0,0,0,.644-.574v-1.244h-.884a2.618,2.618,0,0,0-1.369.287.9.9,0,0,0-.459.811.827.827,0,0,0,.314.679A1.3,1.3,0,0,0,938.913,195.264Z" transform="translate(-818.555 -186.966)" fill="#53545a"/>
      <path id="Path_25" data-name="Path 25" d="M947.793,187.721v1.6h1.288v1.1h-1.288V194.1a.753.753,0,0,0,.165.545.819.819,0,0,0,.59.168,2.773,2.773,0,0,0,.573-.06V195.9a4.445,4.445,0,0,1-1.079.139,1.667,1.667,0,0,1-1.889-1.884v-3.738h-1.2v-1.1h1.2v-1.6Z" transform="translate(-820.466 -186.557)" fill="#53545a"/>
      <path id="Path_26" data-name="Path 26" d="M954.956,196.453a3.591,3.591,0,0,1-2.526-.887,3.047,3.047,0,0,1-.968-2.362v-.183a3.641,3.641,0,0,1,.421-1.765,3.019,3.019,0,0,1,1.184-1.211,3.384,3.384,0,0,1,1.7-.433,3.02,3.02,0,0,1,2.3.86,3.4,3.4,0,0,1,.813,2.433v.6h-4.769a1.891,1.891,0,0,0,.6,1.293,1.918,1.918,0,0,0,1.332.476,2.309,2.309,0,0,0,1.835-.823l.883.762a2.885,2.885,0,0,1-1.17.918A3.989,3.989,0,0,1,954.956,196.453Zm-.2-5.652a1.449,1.449,0,0,0-1.089.427,2.106,2.106,0,0,0-.53,1.189h3.123v-.11a1.7,1.7,0,0,0-.438-1.125A1.45,1.45,0,0,0,954.76,190.8Z" transform="translate(-821.875 -186.966)" fill="#53545a"/>
    </g>
    <path id="Path_29" data-name="Path 29" d="M19.634-26.79c3.506-.326,4.933-2.405,4.933-6.442,0-5.789-2.609-7.339-9.948-7.339-4.729,0-7.379.041-10.559.326v28.131c3.547.285,6.482.326,11.864.326,6.727,0,9.54-1.549,9.54-7.339,0-4.485-1.508-7.135-5.83-7.5Zm-1.019-5.585c0,2.895-.938,3.629-3.955,3.629H10.135v-7.135h4.2C17.6-35.882,18.615-35.229,18.615-32.375Zm-8.48,15.9v-8.154H14.7c3.506.041,4.525.9,4.525,4.322,0,3.139-.978,3.832-4.362,3.832Zm42.2-23.769H46.094v16.919c0,5.178-1.264,6.727-5.015,6.727-3.832,0-5.055-1.549-5.055-6.727V-40.244h-6.2v16.919c0,8.6,3.058,11.742,11.538,11.742,8.032,0,10.967-3.139,10.967-11.742Zm14.6-.53c-7.257,0-10.233,1.345-10.233,7.787,0,4.159,1.549,6.686,5.83,8.236l5.667,2c1.875.612,2.65,1.1,2.65,3.1,0,2.283-.9,2.732-4.159,2.732-1.794,0-4.077-.082-9.3-.2l-.367,4.485a46.158,46.158,0,0,0,9.662,1.06c7.665,0,10.437-1.712,10.437-8.113,0-4.118-1.468-6.686-5.952-8.276l-5.341-1.835c-2.12-.693-2.935-1.223-2.935-3.18,0-2.405,1.06-2.568,4.077-2.568,2.976,0,6.442.041,8.806.122l.408-4.24A34.282,34.282,0,0,0,66.927-40.774ZM87.72-12.113V-40.244h-6.2v28.131Zm16.593-28.62c-8.684,0-11.823,3.832-11.823,14.555s3.139,14.555,11.823,14.555a27.684,27.684,0,0,0,9.01-1.142l-.53-4.607a62.423,62.423,0,0,1-8.48.367c-4.077,0-5.3-2.079-5.3-9.173s1.223-9.173,5.3-9.173c3.547,0,5.259.041,7.909.2l.53-4.648A29.745,29.745,0,0,0,104.313-40.733ZM128-40.774c-8.888,0-12.027,3.3-12.027,14.6s3.139,14.6,12.027,14.6,12.068-3.3,12.068-14.6S136.888-40.774,128-40.774Zm0,5.015c4.24,0,5.5,2.12,5.5,9.581S132.24-16.6,128-16.6s-5.5-2.12-5.5-9.581S123.76-35.759,128-35.759Z" transform="translate(-4.06 40.774)" fill="#001659"/>
  </g>
</svg>
