<svg xmlns="http://www.w3.org/2000/svg" width="19" height="19" viewBox="0 0 19 19" fill="none">
	<path d="M7.64434 15.29C9.34308 15.2899 10.9932 14.723 12.3333 13.679L17.3943 18.736C17.5747 18.9035 17.813 18.9946 18.0591 18.99C18.3052 18.9855 18.5399 18.8857 18.714 18.7116C18.888 18.5376 18.9878 18.3028 18.9923 18.0567C18.9969 17.8106 18.9058 17.5724 18.7383 17.392L13.6823 12.336C14.7425 10.9718 15.3093 9.28865 15.2903 7.56102C15.2713 5.83339 14.6677 4.16313 13.5778 2.82251C12.488 1.48189 10.9761 0.549965 9.28876 0.17865C7.6014 -0.192665 5.83802 0.0185261 4.28606 0.777798C2.7341 1.53707 1.4851 2.79964 0.742634 4.35971C0.00017339 5.91978 -0.191955 7.68534 0.197567 9.36859C0.587089 11.0518 1.53529 12.5535 2.88761 13.6288C4.23992 14.7042 5.91661 15.2897 7.64434 15.29ZM3.58134 3.58301C4.38487 2.77926 5.40871 2.23186 6.52337 2.01003C7.63802 1.78819 8.79343 1.90189 9.84346 2.33675C10.8935 2.77161 11.791 3.50809 12.4224 4.45304C13.0539 5.398 13.3909 6.50899 13.3909 7.64551C13.3909 8.78202 13.0539 9.89301 12.4224 10.838C11.791 11.7829 10.8935 12.5194 9.84346 12.9543C8.79343 13.3891 7.63802 13.5028 6.52337 13.281C5.40871 13.0592 4.38487 12.5118 3.58134 11.708C3.04721 11.1783 2.62271 10.5485 2.3321 9.85466C2.04149 9.1608 1.89048 8.41648 1.8877 7.66423C1.88491 6.91197 2.0304 6.16655 2.31586 5.47056C2.60132 4.77457 3.02115 4.14166 3.55134 3.60801L3.58134 3.57801V3.58301Z" fill="#001659">
		
	</path>
</svg>